<svg width="22" height="22" viewBox="0 0 22 22" fill="none" xmlns="http://www.w3.org/2000/svg">
<path d="M21.0001 8.25C20.802 8.25259 20.6128 8.33244 20.4727 8.47254C20.3326 8.61263 20.2527 8.80189 20.2501 9V15L16.0701 10.22C15.8045 9.93727 15.4839 9.71193 15.1278 9.5579C14.7718 9.40387 14.388 9.3244 14.0001 9.3244C13.6122 9.3244 13.2284 9.40387 12.8724 9.5579C12.5164 9.71193 12.1957 9.93727 11.9301 10.22L9.06013 13.5L8.12012 12.36C7.8611 12.0493 7.53694 11.7993 7.17059 11.6277C6.80424 11.4562 6.40465 11.3673 6.00012 11.3673C5.5956 11.3673 5.19601 11.4562 4.82966 11.6277C4.46331 11.7993 4.13915 12.0493 3.88012 12.36L1.75012 14.93V5C1.75276 4.13886 2.09602 3.31374 2.70494 2.70482C3.31386 2.09589 4.13898 1.75264 5.00012 1.75H13.0001C13.199 1.75 13.3898 1.67098 13.5305 1.53033C13.6711 1.38968 13.7501 1.19891 13.7501 1C13.7501 0.801088 13.6711 0.610322 13.5305 0.46967C13.3898 0.329018 13.199 0.25 13.0001 0.25H5.00012C3.74035 0.25 2.53216 0.750445 1.64137 1.64124C0.750569 2.53204 0.250124 3.74022 0.250124 5V17C0.245401 17.0163 0.245401 17.0337 0.250124 17.05C0.263294 18.3011 0.769547 19.4965 1.65892 20.3765C2.5483 21.2565 3.74896 21.7501 5.00012 21.75H17.0001C18.2461 21.7475 19.4413 21.2555 20.3279 20.3801C21.2146 19.5047 21.7218 18.3159 21.7401 17.07V9C21.7376 8.80359 21.6591 8.61578 21.5212 8.47596C21.3832 8.33613 21.1965 8.25515 21.0001 8.25ZM17.0001 20.25H5.00012C4.18324 20.2474 3.39729 19.9373 2.79875 19.3813C2.2002 18.8254 1.83296 18.0645 1.77012 17.25L5.00012 13.32C5.12111 13.1852 5.26911 13.0774 5.43452 13.0036C5.59992 12.9298 5.77901 12.8917 5.96012 12.8917C6.14124 12.8917 6.32033 12.9298 6.48573 13.0036C6.65113 13.0774 6.79914 13.1852 6.92013 13.32L8.43013 15.14C8.49938 15.2242 8.58638 15.2921 8.68492 15.3388C8.78346 15.3854 8.89109 15.4098 9.00012 15.41C9.21606 15.3981 9.41957 15.3053 9.57012 15.15L13.0101 11.21C13.1325 11.0811 13.2799 10.9785 13.4432 10.9083C13.6065 10.8382 13.7824 10.802 13.9601 10.802C14.1379 10.802 14.3138 10.8382 14.4771 10.9083C14.6404 10.9785 14.7877 11.0811 14.9101 11.21L20.1801 17.21C20.1299 18.0239 19.7746 18.789 19.1852 19.3524C18.5957 19.9159 17.8155 20.2365 17.0001 20.25Z" fill="#ADADAD"/>
<path d="M3.25 6C3.25 6.5439 3.41128 7.07558 3.71346 7.52782C4.01563 7.98005 4.44512 8.33253 4.94762 8.54067C5.45012 8.74881 6.00305 8.80327 6.5365 8.69716C7.06995 8.59105 7.55995 8.32914 7.94454 7.94454C8.32914 7.55995 8.59105 7.06995 8.69716 6.5365C8.80327 6.00305 8.74881 5.45012 8.54067 4.94762C8.33253 4.44512 7.98005 4.01563 7.52782 3.71346C7.07558 3.41128 6.5439 3.25 6 3.25C5.27065 3.25 4.57118 3.53973 4.05546 4.05546C3.53973 4.57118 3.25 5.27065 3.25 6ZM7.25 6C7.25 6.24723 7.17669 6.4889 7.03934 6.69446C6.90199 6.90002 6.70676 7.06024 6.47835 7.15485C6.24995 7.24946 5.99861 7.27421 5.75614 7.22598C5.51366 7.17775 5.29093 7.0587 5.11612 6.88388C4.9413 6.70907 4.82225 6.48634 4.77402 6.24386C4.72579 6.00139 4.75054 5.75005 4.84515 5.52165C4.93976 5.29324 5.09998 5.09801 5.30554 4.96066C5.5111 4.82331 5.75277 4.75 6 4.75C6.33152 4.75 6.64946 4.8817 6.88388 5.11612C7.1183 5.35054 7.25 5.66848 7.25 6Z" fill="#ADADAD"/>
<path d="M15 4.75H17.25V7C17.25 7.19891 17.329 7.38968 17.4697 7.53033C17.6103 7.67098 17.8011 7.75 18 7.75C18.1989 7.75 18.3897 7.67098 18.5303 7.53033C18.671 7.38968 18.75 7.19891 18.75 7V4.75H21C21.1989 4.75 21.3897 4.67098 21.5303 4.53033C21.671 4.38968 21.75 4.19891 21.75 4C21.75 3.80109 21.671 3.61032 21.5303 3.46967C21.3897 3.32902 21.1989 3.25 21 3.25H18.75V1C18.75 0.801088 18.671 0.610322 18.5303 0.46967C18.3897 0.329018 18.1989 0.25 18 0.25C17.8011 0.25 17.6103 0.329018 17.4697 0.46967C17.329 0.610322 17.25 0.801088 17.25 1V3.25H15C14.8011 3.25 14.6103 3.32902 14.4697 3.46967C14.329 3.61032 14.25 3.80109 14.25 4C14.25 4.19891 14.329 4.38968 14.4697 4.53033C14.6103 4.67098 14.8011 4.75 15 4.75Z" fill="#ADADAD"/>
</svg>
