<svg width="23" height="22" viewBox="0 0 23 22" fill="none" xmlns="http://www.w3.org/2000/svg">
<path d="M11.5002 13.2904C12.7658 13.2904 13.7918 12.2644 13.7918 10.9987C13.7918 9.73305 12.7658 8.70703 11.5002 8.70703C10.2345 8.70703 9.2085 9.73305 9.2085 10.9987C9.2085 12.2644 10.2345 13.2904 11.5002 13.2904Z" stroke="white" strokeWidth="1.5" strokeMiterlimit="10" strokeLinecap="round" strokeLinejoin="round"/>
<path d="M17.4585 8.70703V13.2904" stroke="white" strokeWidth="1.5" strokeMiterlimit="10" strokeLinecap="round" strokeLinejoin="round"/>
<path d="M8.75033 16.5026C8.75033 17.1901 8.55784 17.8409 8.21867 18.3909C7.58617 19.4543 6.42199 20.1693 5.08366 20.1693C3.74533 20.1693 2.58115 19.4543 1.94865 18.3909C1.60948 17.8409 1.41699 17.1901 1.41699 16.5026C1.41699 14.4768 3.05783 12.8359 5.08366 12.8359C7.10949 12.8359 8.75033 14.4768 8.75033 16.5026Z" stroke="white" strokeWidth="1.5" strokeMiterlimit="10" strokeLinecap="round" strokeLinejoin="round"/>
<path d="M6.45089 16.4844H3.71924" stroke="white" strokeWidth="1.5" strokeMiterlimit="10" strokeLinecap="round" strokeLinejoin="round"/>
<path d="M5.0835 15.1445V17.8854" stroke="white" strokeWidth="1.5" strokeMiterlimit="10" strokeLinecap="round" strokeLinejoin="round"/>
<path d="M2.3335 14.0263V8.2513C2.3335 5.04297 4.16683 3.66797 6.91683 3.66797H16.0835C18.8335 3.66797 20.6668 5.04297 20.6668 8.2513V13.7513C20.6668 16.9596 18.8335 18.3346 16.0835 18.3346H8.29183" stroke="white" strokeWidth="1.5" strokeMiterlimit="10" strokeLinecap="round" strokeLinejoin="round"/>
</svg>
