<svg width="32" height="33" viewBox="0 0 32 33" fill="none" xmlns="http://www.w3.org/2000/svg">
<g clip-path="url(#clip0_4379_8060)">
<path d="M26.2186 12.281C26.063 11.9569 25.7353 11.75 25.3745 11.75H19.3906L24.3381 1.85681C24.4828 1.56656 24.4681 1.22144 24.2978 0.944937C24.1258 0.668438 23.8236 0.5 23.4995 0.5H12.2495C11.8595 0.5 11.5098 0.742625 11.3724 1.10794L5.74744 16.1079C5.63938 16.3963 5.67969 16.7186 5.85363 16.9713C6.02944 17.2239 6.31688 17.375 6.6245 17.375H12.9233L9.46444 31.3354C9.35825 31.763 9.56332 32.207 9.95882 32.4029C10.3531 32.5973 10.8302 32.4929 11.1069 32.1484L26.1069 13.2734C26.3322 12.9914 26.3761 12.606 26.2186 12.281Z" fill="url(#paint0_linear_4379_8060)"/>
</g>
<defs>
<linearGradient id="paint0_linear_4379_8060" x1="15.9999" y1="32.4999" x2="15.9999" y2="0.5" gradientUnits="userSpaceOnUse">
<stop stop-color="#FD5900"/>
<stop offset="1" stop-color="#FFDE00"/>
</linearGradient>
<clipPath id="clip0_4379_8060">
<rect width="32" height="32" fill="white" transform="translate(0 0.5)"/>
</clipPath>
</defs>
</svg>
