<svg width="25" height="25" viewBox="0 0 25 25" fill="none" xmlns="http://www.w3.org/2000/svg">
<rect width="24" height="24.2093" transform="translate(0.775269)" fill="white"/>
<path d="M21.7753 6.78857C21.7553 6.78857 21.7253 6.78857 21.6953 6.78857C16.4053 6.25395 11.1253 6.0522 5.89531 6.58683L3.85531 6.78857C3.43531 6.82892 3.06531 6.5263 3.02531 6.10264C2.98531 5.67898 3.28531 5.31584 3.69531 5.27549L5.73531 5.07374C11.0553 4.52904 16.4453 4.74087 21.8453 5.27549C22.2553 5.31584 22.5553 5.68906 22.5153 6.10264C22.4853 6.49604 22.1553 6.78857 21.7753 6.78857Z" fill="#FF2828"/>
<path d="M9.27528 5.76997C9.23528 5.76997 9.19528 5.76997 9.14528 5.75988C8.74528 5.68927 8.46528 5.29587 8.53528 4.89238L8.75528 3.57096C8.91528 2.60259 9.13528 1.26099 11.4653 1.26099H14.0853C16.4253 1.26099 16.6453 2.65302 16.7953 3.58104L17.0153 4.89238C17.0853 5.30596 16.8053 5.69936 16.4053 5.75988C15.9953 5.83049 15.6053 5.54805 15.5453 5.14456L15.3253 3.83322C15.1853 2.95564 15.1553 2.78415 14.0953 2.78415H11.4753C10.4153 2.78415 10.3953 2.92538 10.2453 3.82314L10.0153 5.13447C9.95528 5.5077 9.63528 5.76997 9.27528 5.76997Z" fill="#FF2828"/>
<path d="M15.9853 22.9483H9.56529C6.07529 22.9483 5.93529 21.0015 5.82529 19.4279L5.17529 9.27006C5.14529 8.85648 5.46529 8.49334 5.87529 8.46308C6.29529 8.44291 6.64529 8.75561 6.67529 9.16919L7.32529 19.327C7.43529 20.8603 7.47529 21.4352 9.56529 21.4352H15.9853C18.0853 21.4352 18.1253 20.8603 18.2253 19.327L18.8753 9.16919C18.9053 8.75561 19.2653 8.44291 19.6753 8.46308C20.0853 8.49334 20.4053 8.84639 20.3753 9.27006L19.7253 19.4279C19.6153 21.0015 19.4753 22.9483 15.9853 22.9483Z" fill="#FF2828"/>
<path d="M14.4352 17.4005H11.1052C10.6952 17.4005 10.3552 17.0576 10.3552 16.644C10.3552 16.2304 10.6952 15.8875 11.1052 15.8875H14.4352C14.8452 15.8875 15.1852 16.2304 15.1852 16.644C15.1852 17.0576 14.8452 17.4005 14.4352 17.4005Z" fill="#FF2828"/>
<path d="M15.2753 13.3656H10.2753C9.86527 13.3656 9.52527 13.0227 9.52527 12.6091C9.52527 12.1955 9.86527 11.8525 10.2753 11.8525H15.2753C15.6853 11.8525 16.0253 12.1955 16.0253 12.6091C16.0253 13.0227 15.6853 13.3656 15.2753 13.3656Z" fill="#FF2828"/>
</svg>
