<svg width="20" height="20" viewBox="0 0 20 20" fill="none" xmlns="http://www.w3.org/2000/svg">
<path d="M16.882 7.99663V12.3153L19.6071 11.2796L15.831 1.79583L0.392578 7.99663" fill="#6F9935"/>
<path d="M17.6672 12.0169V7.21142H2.3477L1.17773 7.68137V7.99663H16.8819V12.3153L17.6672 12.0169Z" fill="#658B30"/>
<path d="M0.392578 7.99663H16.882V18.2044H0.392578V7.99663Z" fill="#79A73A"/>
<path d="M1.96289 11.4162C2.85126 11.1504 3.54627 10.4554 3.81206 9.56705H13.4623C13.728 10.4555 14.4231 11.1505 15.3115 11.4162V14.7848C14.4231 15.0505 13.728 15.7455 13.4623 16.6339H3.92592H3.81167C3.54597 15.7457 2.85111 15.0507 1.96289 14.7848V11.4162Z" fill="#AAC16B"/>
<path d="M8.63685 15.0635C9.721 15.0635 10.5999 14.1846 10.5999 13.1005C10.5999 12.0163 9.721 11.1375 8.63685 11.1375C7.5527 11.1375 6.67383 12.0163 6.67383 13.1005C6.67383 14.1846 7.5527 15.0635 8.63685 15.0635Z" fill="#79A73A"/>
<path d="M16.6096 7.99664L15.6788 5.60175L15.6364 5.49614C14.7129 5.57805 13.8102 5.18986 13.2344 4.4632L13.1292 4.5056L4.71094 7.99664H16.6096Z" fill="#AAC16B"/>
<path d="M6.60447 7.21143L4.71094 7.99664H16.6096L16.3046 7.21143H6.60447Z" fill="#89B140"/>
<path d="M4.31839 13.4931C4.53522 13.4931 4.71099 13.3173 4.71099 13.1005C4.71099 12.8837 4.53522 12.7079 4.31839 12.7079C4.10156 12.7079 3.92578 12.8837 3.92578 13.1005C3.92578 13.3173 4.10156 13.4931 4.31839 13.4931Z" fill="#79A73A"/>
<path d="M12.9561 13.4931C13.1729 13.4931 13.3487 13.3173 13.3487 13.1005C13.3487 12.8837 13.1729 12.7079 12.9561 12.7079C12.7393 12.7079 12.5635 12.8837 12.5635 13.1005C12.5635 13.3173 12.7393 13.4931 12.9561 13.4931Z" fill="#79A73A"/>
<path d="M0.392605 18.597H16.882C17.0988 18.597 17.2746 18.4212 17.2746 18.2044V12.6294L19.7528 11.6424C19.9542 11.562 20.0523 11.3336 19.9719 11.1322C19.9719 11.1321 19.9719 11.1321 19.9718 11.132L16.1958 1.65056C16.1156 1.44911 15.8873 1.35076 15.6858 1.4309C15.6857 1.43095 15.6855 1.431 15.6854 1.4311L0.366301 7.531C0.303827 7.558 0.249648 7.60108 0.209259 7.65585C0.0818582 7.72206 0.00137412 7.85309 0 7.99663V18.2044C0 18.4212 0.175789 18.597 0.392605 18.597ZM16.4894 17.8118H0.785211V8.38924H16.4894V17.8118ZM13.1244 4.98653C13.7111 5.60321 14.524 5.95371 15.3752 5.95705L16.0309 7.60599H6.55062L13.1244 4.98653ZM19.0975 11.059L17.2746 11.7861V7.99663C17.2746 7.77982 17.0988 7.60403 16.882 7.60403H16.8757L16.0438 5.51458C16.0346 5.49716 16.0238 5.48057 16.0116 5.46512C15.9695 5.27603 15.7944 5.14701 15.6013 5.16281C14.8094 5.235 14.0346 4.90138 13.5429 4.27631C13.4206 4.1253 13.2055 4.08776 13.0392 4.18836C13.0206 4.19057 13.0021 4.19401 12.9838 4.19857L4.95821 7.39438C4.86109 7.43246 4.7834 7.50799 4.74267 7.60403H2.30538L15.6116 2.30582L19.0975 11.059Z" fill="#191919"/>
<path d="M1.85063 15.1613C2.61288 15.3866 3.20934 15.9823 3.43558 16.7443C3.4852 16.9106 3.63816 17.0245 3.8117 17.0246C3.83206 17.0233 3.85228 17.0203 3.87216 17.0156C3.88978 17.0206 3.90779 17.0242 3.92594 17.0266H13.3485C13.3647 17.0244 13.3807 17.0212 13.3964 17.0167C13.5925 17.0644 13.7902 16.9442 13.838 16.748C13.8381 16.7473 13.8383 16.7466 13.8384 16.7458C14.0641 15.9831 14.6607 15.3865 15.4234 15.1609C15.6084 15.1044 15.7233 14.92 15.6927 14.729C15.698 14.71 15.7017 14.6906 15.7041 14.6709V11.5301C15.7018 11.5104 15.6979 11.491 15.6923 11.472C15.7231 11.2809 15.6081 11.0965 15.423 11.0401C14.6603 10.8145 14.0638 10.2177 13.8388 9.45477C13.782 9.26853 13.5959 9.1533 13.4038 9.18544C13.3857 9.18039 13.3672 9.17671 13.3485 9.17445H3.92594C3.90617 9.17681 3.88659 9.18073 3.86745 9.18623C3.67649 9.1558 3.49226 9.27069 3.43558 9.45556C3.20978 10.2181 2.61327 10.8145 1.85063 11.0401C1.66567 11.0966 1.55073 11.281 1.58131 11.472C1.5762 11.4911 1.57252 11.5105 1.57031 11.5301V14.6709C1.57257 14.6894 1.57625 14.7076 1.58131 14.7255C1.54911 14.9178 1.66429 15.1041 1.85063 15.1613ZM4.08534 9.95966H13.1887C13.5055 10.748 14.1304 11.3728 14.9189 11.6895V14.5115C14.1308 14.8285 13.5061 15.4532 13.1891 16.2413H4.08534C3.76836 15.4532 3.14363 14.8285 2.35552 14.5115V11.6895C3.14387 11.3728 3.76871 10.748 4.08534 9.95966Z" fill="#191919"/>
<path d="M8.63688 15.4561C9.93788 15.4561 10.9925 14.4015 10.9925 13.1005C10.9925 11.7995 9.93788 10.7449 8.63688 10.7449C7.33589 10.7449 6.28125 11.7995 6.28125 13.1005C6.28253 14.401 7.33643 15.4549 8.63688 15.4561ZM8.63688 11.5301C9.5042 11.5301 10.2073 12.2332 10.2073 13.1005C10.2073 13.9678 9.5042 14.6709 8.63688 14.6709C7.76957 14.6709 7.06646 13.9678 7.06646 13.1005C7.06646 12.2332 7.76957 11.5301 8.63688 11.5301Z" fill="#191919"/>
<path d="M4.3184 13.6894C4.64362 13.6894 4.90731 13.4257 4.90731 13.1005C4.90731 12.7753 4.64362 12.5116 4.3184 12.5116C3.99318 12.5116 3.72949 12.7753 3.72949 13.1005C3.72949 13.4257 3.99318 13.6894 4.3184 13.6894ZM4.3184 12.9042C4.42681 12.9042 4.5147 12.9921 4.5147 13.1005C4.5147 13.2089 4.42681 13.2968 4.3184 13.2968C4.20999 13.2968 4.1221 13.2089 4.1221 13.1005C4.1221 12.9921 4.20999 12.9042 4.3184 12.9042Z" fill="#191919"/>
<path d="M12.9561 13.6894C13.2813 13.6894 13.545 13.4257 13.545 13.1005C13.545 12.7753 13.2813 12.5116 12.9561 12.5116C12.6309 12.5116 12.3672 12.7753 12.3672 13.1005C12.3672 13.4257 12.6309 13.6894 12.9561 13.6894ZM12.9561 12.9042C13.0645 12.9042 13.1524 12.9921 13.1524 13.1005C13.1524 13.2089 13.0645 13.2968 12.9561 13.2968C12.8477 13.2968 12.7598 13.2089 12.7598 13.1005C12.7598 12.9921 12.8477 12.9042 12.9561 12.9042Z" fill="#191919"/>
</svg>
