<svg width="53" height="35" viewBox="0 0 53 35" fill="none" xmlns="http://www.w3.org/2000/svg">
<g clip-path="url(#clip0_5689_1975)">
<path d="M9.86346 34.8258V32.5093C9.86346 31.6211 9.23905 31.0421 8.16878 31.0421C7.63375 31.0421 7.05403 31.1966 6.65266 31.6985C6.34066 31.2738 5.8948 31.0421 5.22591 31.0421C4.77985 31.0421 4.33419 31.1579 3.9773 31.5826V31.1194H3.04089V34.8258H3.9773V32.7795C3.9773 32.1233 4.37867 31.8143 5.00308 31.8143C5.62708 31.8143 5.93949 32.1618 5.93949 32.7795V34.8258H6.87589V32.7795C6.87589 32.1233 7.32155 31.8143 7.90127 31.8143C8.52568 31.8143 8.83768 32.1618 8.83768 32.7795V34.8258H9.86346ZM23.731 31.1194H22.2151V29.9997H21.2787V31.1194H20.4314V31.8528H21.2785V33.5518C21.2785 34.4013 21.6798 34.903 22.7501 34.903C23.1515 34.903 23.5971 34.7873 23.9096 34.6329L23.6418 33.9378C23.3743 34.0922 23.0623 34.1309 22.8393 34.1309C22.3934 34.1309 22.2151 33.8993 22.2151 33.5131V31.8528H23.731V31.1194ZM31.6683 31.042C31.1333 31.042 30.7766 31.2738 30.5536 31.5826V31.1194H29.6172V34.8258H30.5536V32.741C30.5536 32.1233 30.8656 31.7757 31.4453 31.7757C31.6236 31.7757 31.8467 31.8144 32.025 31.8529L32.2925 31.0808C32.1142 31.0421 31.8467 31.0421 31.6683 31.0421M19.6734 31.4284C19.2273 31.158 18.6031 31.0423 17.9342 31.0423C16.8642 31.0423 16.1508 31.5056 16.1508 32.2392C16.1508 32.857 16.6858 33.2044 17.6222 33.3203L18.0681 33.359C18.5586 33.436 18.8261 33.5519 18.8261 33.7451C18.8261 34.0152 18.4695 34.2083 17.8451 34.2083C17.2208 34.2083 16.7303 34.0152 16.4181 33.8223L15.9722 34.44C16.4628 34.7488 17.1317 34.9032 17.8004 34.9032C19.049 34.9032 19.7626 34.4014 19.7626 33.7064C19.7626 33.05 19.1828 32.7024 18.2909 32.5867L17.8451 32.548C17.4437 32.5093 17.1317 32.4323 17.1317 32.2007C17.1317 31.9303 17.4437 31.7759 17.9342 31.7759C18.4695 31.7759 19.0045 31.9689 19.272 32.0848L19.6734 31.4284ZM44.5552 31.0423C44.0199 31.0423 43.6633 31.274 43.4402 31.5828V31.1195H42.5038V34.826H43.4402V32.7411C43.4402 32.1235 43.7524 31.7759 44.3319 31.7759C44.5105 31.7759 44.7335 31.8146 44.9119 31.8531L45.1794 31.081C45.001 31.0423 44.7335 31.0423 44.5552 31.0423ZM32.6047 32.9728C32.6047 34.0924 33.4964 34.9032 34.8789 34.9032C35.5031 34.9032 35.949 34.7875 36.3948 34.4787L35.949 33.8223C35.5923 34.0539 35.2356 34.1696 34.8342 34.1696C34.0762 34.1696 33.5411 33.7064 33.5411 32.9728C33.5411 32.2779 34.0762 31.8144 34.8342 31.7759C35.2356 31.7759 35.5923 31.8916 35.949 32.1234L36.3948 31.4671C35.949 31.158 35.5031 31.0423 34.8789 31.0423C33.4964 31.0423 32.6047 31.8531 32.6047 32.9728ZM41.2554 32.9728V31.1195H40.319V31.5828C40.0068 31.2354 39.5609 31.0423 38.9812 31.0423C37.7773 31.0423 36.8409 31.8531 36.8409 32.9728C36.8409 34.0924 37.7773 34.9032 38.9812 34.9032C39.6054 34.9032 40.0515 34.7103 40.319 34.3627V34.826H41.2554V32.9728ZM37.8218 32.9728C37.8218 32.3164 38.3123 31.7759 39.1149 31.7759C39.8729 31.7759 40.4082 32.2779 40.4082 32.9728C40.4082 33.6292 39.8729 34.1696 39.1149 34.1696C38.3123 34.1309 37.8218 33.6292 37.8218 32.9728ZM26.6296 31.0423C25.381 31.0423 24.4891 31.8144 24.4891 32.9728C24.4891 34.1311 25.3808 34.9032 26.6741 34.9032C27.2983 34.9032 27.9227 34.7488 28.4132 34.4014L27.9672 33.8223C27.6105 34.0539 27.1646 34.2083 26.7188 34.2083C26.1391 34.2083 25.5593 33.9767 25.4255 33.3201H28.5916V33.0115C28.6363 31.8144 27.8337 31.0423 26.6296 31.0423ZM26.6294 31.7372C27.2089 31.7372 27.6105 32.0462 27.6995 32.6254H25.47C25.5591 32.1235 25.9605 31.7372 26.6294 31.7372ZM49.8612 32.9728V29.6523H48.9248V31.5828C48.6126 31.2354 48.1667 31.0423 47.587 31.0423C46.3831 31.0423 45.4467 31.8531 45.4467 32.9728C45.4467 34.0924 46.3831 34.9032 47.587 34.9032C48.2114 34.9032 48.6573 34.7103 48.9248 34.3627V34.826H49.8612V32.9728ZM46.4278 32.9728C46.4278 32.3164 46.9181 31.7759 47.7209 31.7759C48.4789 31.7759 49.014 32.2779 49.014 32.9728C49.014 33.6292 48.4789 34.1696 47.7209 34.1696C46.9181 34.1309 46.4278 33.6292 46.4278 32.9728ZM15.1248 32.9728V31.1195H14.1884V31.5828C13.8762 31.2354 13.4303 31.0423 12.8506 31.0423C11.6467 31.0423 10.7103 31.8531 10.7103 32.9728C10.7103 34.0924 11.6467 34.9032 12.8506 34.9032C13.475 34.9032 13.9209 34.7103 14.1884 34.3627V34.826H15.1248V32.9728ZM11.6467 32.9728C11.6467 32.3164 12.1372 31.7759 12.9398 31.7759C13.6978 31.7759 14.2331 32.2779 14.2331 32.9728C14.2331 33.6292 13.6978 34.1696 12.9398 34.1696C12.1372 34.1309 11.6467 33.6292 11.6467 32.9728Z" fill="#191919"/>
<path d="M19.3612 2.97266H33.4073V24.8258H19.3612V2.97266Z" fill="#FF5F00"/>
<path d="M20.2531 13.8996C20.2531 9.4595 22.661 5.52121 26.3619 2.97289C23.6421 1.11965 20.2086 0 16.463 0C7.58908 0 0.410034 6.21611 0.410034 13.8996C0.410034 21.5829 7.58908 27.7992 16.4628 27.7992C20.2084 27.7992 23.6418 26.6795 26.3619 24.8261C22.661 22.3165 20.2531 18.3397 20.2531 13.8996Z" fill="#EB001B"/>
<path d="M52.3584 13.8996C52.3584 21.5829 45.1794 27.7992 36.3056 27.7992C32.56 27.7992 29.1266 26.6795 26.4066 24.8261C30.1522 22.2779 32.5155 18.3397 32.5155 13.8996C32.5155 9.4595 30.1075 5.52121 26.4066 2.97289C29.1264 1.11965 32.56 0 36.3056 0C45.1794 0 52.3584 6.2548 52.3584 13.8996Z" fill="#F79E1B"/>
</g>
<defs>
<clipPath id="clip0_5689_1975">
<rect width="52" height="35" fill="white" transform="translate(0.410034)"/>
</clipPath>
</defs>
</svg>
