<svg width="43" height="43" viewBox="0 0 43 43" fill="none" xmlns="http://www.w3.org/2000/svg">
<path d="M31.455 40.7603H11.365C7.00753 40.7603 3.47253 37.1411 3.47253 32.6798V20.6219C3.47253 16.1607 7.00753 12.5415 11.365 12.5415H31.455C35.8125 12.5415 39.3475 16.1607 39.3475 20.6219V23.2019C39.3475 23.9365 38.7525 24.5457 38.035 24.5457H34.5C33.8875 24.5457 33.3275 24.7786 32.925 25.2086L32.9075 25.2265C32.4175 25.7103 32.19 26.3731 32.2425 27.054C32.3475 28.2365 33.45 29.186 34.71 29.186H38.035C38.7525 29.186 39.3475 29.7952 39.3475 30.5298V32.6619C39.3475 37.1411 35.8125 40.7603 31.455 40.7603ZM11.365 15.229C8.46003 15.229 6.09753 17.6478 6.09753 20.6219V32.6798C6.09753 35.654 8.46003 38.0728 11.365 38.0728H31.455C34.36 38.0728 36.7225 35.654 36.7225 32.6798V31.8915H34.71C32.0675 31.8915 29.8275 29.8848 29.6175 27.3048C29.4775 25.8357 30.0025 24.3845 31.0525 23.3274C31.9625 22.3778 33.1875 21.8582 34.5 21.8582H36.7225V20.6219C36.7225 17.6478 34.36 15.229 31.455 15.229H11.365Z" fill="#666666"/>
<path d="M4.78503 23.5785C4.06753 23.5785 3.47253 22.9693 3.47253 22.2348V14.0469C3.47253 11.3774 5.11753 8.95851 7.55003 8.00892L21.445 2.63392C22.88 2.07851 24.4725 2.27568 25.715 3.17151C26.975 4.06734 27.71 5.51858 27.71 7.07733V13.8856C27.71 14.6202 27.115 15.2294 26.3975 15.2294C25.68 15.2294 25.085 14.6202 25.085 13.8856V7.07733C25.085 6.3965 24.77 5.76939 24.21 5.37522C23.65 4.98106 22.985 4.89147 22.355 5.1423L8.46003 10.5173C7.04253 11.0727 6.08003 12.4882 6.08003 14.0469V22.2348C6.09753 22.9873 5.50253 23.5785 4.78503 23.5785Z" fill="#666666"/>
<path d="M34.71 31.8917C32.0675 31.8917 29.8275 29.885 29.6175 27.305C29.4775 25.8179 30.0025 24.3667 31.0525 23.3096C31.945 22.378 33.17 21.8584 34.4825 21.8584H38.1225C39.855 21.9121 41.185 23.3096 41.185 25.0296V28.7205C41.185 30.4405 39.855 31.8379 38.175 31.8917H34.71ZM38.0875 24.5459H34.5C33.8875 24.5459 33.3275 24.7788 32.925 25.2088C32.4175 25.7105 32.1725 26.3913 32.2425 27.0721C32.3475 28.2546 33.45 29.2042 34.71 29.2042H38.14C38.3675 29.2042 38.5775 28.9893 38.5775 28.7205V25.0296C38.5775 24.7608 38.3675 24.5638 38.0875 24.5459Z" fill="#666666"/>
<path d="M24.91 22.8438H12.66C11.9425 22.8438 11.3475 22.2346 11.3475 21.5C11.3475 20.7654 11.9425 20.1562 12.66 20.1562H24.91C25.6275 20.1562 26.2225 20.7654 26.2225 21.5C26.2225 22.2346 25.6275 22.8438 24.91 22.8438Z" fill="#666666"/>
</svg>
