<svg width="49" height="49" viewBox="0 0 49 49" fill="none" xmlns="http://www.w3.org/2000/svg">
<g clip-path="url(#clip0_5689_1947)">
<path d="M40.9269 19.5919V30.1726L47.4671 27.6351L38.4045 4.3999L1.35229 19.5919" fill="#6F9935"/>
<path d="M42.8114 29.4414V17.668H6.0447L3.23679 18.8193V19.5917H40.9269V30.1724L42.8114 29.4414Z" fill="#658B30"/>
<path d="M1.35229 19.5918H40.9269V44.6008H1.35229V19.5918Z" fill="#79A73A"/>
<path d="M5.12131 27.9699C7.25339 27.3187 8.92141 25.616 9.55932 23.4395H32.7199C33.3577 25.6161 35.0257 27.3188 37.1579 27.9699V36.2229C35.0257 36.874 33.3577 38.5767 32.7199 40.7533H9.83257H9.55837C8.92071 38.5771 7.25304 36.8743 5.12131 36.2229V27.9699Z" fill="#AAC16B"/>
<path d="M21.1396 36.9054C23.7416 36.9054 25.8509 34.7522 25.8509 32.096C25.8509 29.4399 23.7416 27.2866 21.1396 27.2866C18.5376 27.2866 16.4283 29.4399 16.4283 32.096C16.4283 34.7522 18.5376 36.9054 21.1396 36.9054Z" fill="#79A73A"/>
<path d="M40.2739 19.5915L38.0398 13.724L37.9381 13.4653C35.7218 13.666 33.5552 12.7149 32.1734 10.9346L31.9209 11.0385L11.7171 19.5915H40.2739Z" fill="#AAC16B"/>
<path d="M16.2616 17.668L11.7171 19.5917H40.2739L39.5418 17.668H16.2616Z" fill="#89B140"/>
<path d="M10.7748 33.058C11.2952 33.058 11.7171 32.6274 11.7171 32.0962C11.7171 31.5649 11.2952 31.1343 10.7748 31.1343C10.2544 31.1343 9.83255 31.5649 9.83255 32.0962C9.83255 32.6274 10.2544 33.058 10.7748 33.058Z" fill="#79A73A"/>
<path d="M31.5044 33.058C32.0247 33.058 32.4466 32.6274 32.4466 32.0962C32.4466 31.5649 32.0247 31.1343 31.5044 31.1343C30.984 31.1343 30.5621 31.5649 30.5621 32.0962C30.5621 32.6274 30.984 33.058 31.5044 33.058Z" fill="#79A73A"/>
<path d="M1.35229 45.5628H40.9269C41.4473 45.5628 41.8692 45.1321 41.8692 44.6009V30.9421L47.8167 28.524C48.3 28.3271 48.5355 27.7676 48.3427 27.2741C48.3425 27.2739 48.3425 27.2738 48.3424 27.2735L39.2798 4.04405C39.0875 3.55048 38.5395 3.30953 38.056 3.50587C38.0556 3.50599 38.0553 3.50611 38.0549 3.50635L1.28916 18.4511C1.13922 18.5173 1.00919 18.6228 0.912255 18.757C0.606494 18.9192 0.413332 19.2402 0.410034 19.5919V44.6009C0.410034 45.1321 0.831928 45.5628 1.35229 45.5628ZM39.9846 43.639H2.29454V20.5538H39.9846V43.639ZM31.9086 12.2172C33.3167 13.728 35.2677 14.5868 37.3105 14.5949L38.8841 18.6348H16.1315L31.9086 12.2172ZM46.244 27.0946L41.8692 28.876V19.5919C41.8692 19.0607 41.4473 18.63 40.9269 18.63H40.9118L38.9152 13.5109C38.893 13.4682 38.8673 13.4276 38.8379 13.3897C38.7369 12.9264 38.3166 12.6103 37.8533 12.6491C35.9525 12.8259 34.0931 12.0086 32.913 10.4771C32.6194 10.1072 32.1033 10.0152 31.7041 10.2617C31.6594 10.2671 31.615 10.2755 31.5713 10.2867L12.3097 18.1164C12.0767 18.2097 11.8902 18.3947 11.7924 18.63H5.94294L37.8778 5.64943L46.244 27.0946Z" fill="#191919"/>
<path d="M4.85182 37.1453C6.6812 37.6973 8.11272 39.1568 8.65569 41.0236C8.77477 41.4311 9.14189 41.7103 9.55837 41.7104C9.60725 41.7073 9.65577 41.6998 9.70347 41.6883C9.74576 41.7005 9.78898 41.7095 9.83256 41.7152H32.4466C32.4855 41.71 32.5239 41.702 32.5616 41.6911C33.0324 41.808 33.5068 41.5133 33.6214 41.0327C33.6219 41.0309 33.6222 41.0293 33.6226 41.0275C34.1641 39.1588 35.5959 37.6972 37.4264 37.1443C37.8703 37.0058 38.1462 36.5542 38.0728 36.0863C38.0854 36.0396 38.0945 35.992 38.1001 35.9439V28.2488C38.0946 28.2006 38.0852 28.153 38.0719 28.1065C38.1457 27.6384 37.8698 27.1866 37.4255 27.0484C35.5949 26.4957 34.1635 25.0335 33.6235 23.1643C33.4871 22.708 33.0404 22.4257 32.5795 22.5045C32.5359 22.4921 32.4915 22.4831 32.4466 22.4775H9.83256C9.7851 22.4833 9.7381 22.4929 9.69217 22.5064C9.23388 22.4318 8.79173 22.7133 8.65569 23.1662C8.11378 25.0346 6.68214 26.4957 4.85182 27.0484C4.4079 27.1869 4.13205 27.6385 4.20543 28.1065C4.19318 28.1532 4.18435 28.2007 4.17905 28.2488V35.9439C4.18446 35.9891 4.1933 36.0338 4.20543 36.0776C4.12816 36.5487 4.4046 37.0052 4.85182 37.1453ZM10.2151 24.4013H32.0631C32.8234 26.3328 34.3234 27.8636 36.2156 28.6394V35.5534C34.3242 36.33 32.8248 37.8606 32.0641 39.7914H10.2151C9.45437 37.8606 7.95501 36.33 6.06355 35.5534V28.6394C7.9556 27.8636 9.45519 26.3328 10.2151 24.4013Z" fill="#191919"/>
<path d="M21.1396 37.8673C24.262 37.8673 26.7931 35.2834 26.7931 32.096C26.7931 28.9086 24.262 26.3247 21.1396 26.3247C18.0172 26.3247 15.4861 28.9086 15.4861 32.096C15.4891 35.2821 18.0185 37.8642 21.1396 37.8673ZM21.1396 28.2485C23.2212 28.2485 24.9086 29.9711 24.9086 32.096C24.9086 34.2209 23.2212 35.9435 21.1396 35.9435C19.058 35.9435 17.3706 34.2209 17.3706 32.096C17.3706 29.9711 19.058 28.2485 21.1396 28.2485Z" fill="#191919"/>
<path d="M10.7748 33.539C11.5554 33.539 12.1882 32.8929 12.1882 32.0961C12.1882 31.2993 11.5554 30.6533 10.7748 30.6533C9.99429 30.6533 9.36145 31.2993 9.36145 32.0961C9.36145 32.8929 9.99429 33.539 10.7748 33.539ZM10.7748 31.6152C11.035 31.6152 11.246 31.8305 11.246 32.0961C11.246 32.3617 11.035 32.5771 10.7748 32.5771C10.5146 32.5771 10.3037 32.3617 10.3037 32.0961C10.3037 31.8305 10.5146 31.6152 10.7748 31.6152Z" fill="#191919"/>
<path d="M31.5044 33.539C32.2849 33.539 32.9178 32.8929 32.9178 32.0961C32.9178 31.2993 32.2849 30.6533 31.5044 30.6533C30.7238 30.6533 30.091 31.2993 30.091 32.0961C30.091 32.8929 30.7238 33.539 31.5044 33.539ZM31.5044 31.6152C31.7646 31.6152 31.9755 31.8305 31.9755 32.0961C31.9755 32.3617 31.7646 32.5771 31.5044 32.5771C31.2442 32.5771 31.0333 32.3617 31.0333 32.0961C31.0333 31.8305 31.2442 31.6152 31.5044 31.6152Z" fill="#191919"/>
</g>
<defs>
<clipPath id="clip0_5689_1947">
<rect width="48" height="49" fill="white" transform="translate(0.410034)"/>
</clipPath>
</defs>
</svg>
