<svg width="50" height="49" viewBox="0 0 50 49" fill="none" xmlns="http://www.w3.org/2000/svg">
<g clip-path="url(#clip0_5689_1971)">
<path d="M44.8163 42.875H5.00378C2.46191 42.875 0.410034 40.8231 0.410034 38.2812V10.7188C0.410034 8.17688 2.46191 6.125 5.00378 6.125H44.8163C47.3582 6.125 49.41 8.17688 49.41 10.7188V38.2812C49.41 40.8231 47.3582 42.875 44.8163 42.875ZM5.00378 9.1875C4.14628 9.1875 3.47253 9.86125 3.47253 10.7188V38.2812C3.47253 39.1387 4.14628 39.8125 5.00378 39.8125H44.8163C45.6738 39.8125 46.3475 39.1387 46.3475 38.2812V10.7188C46.3475 9.86125 45.6738 9.1875 44.8163 9.1875H5.00378Z" fill="black"/>
<path d="M40.8044 19.6921H38.5075C37.8032 19.6921 37.2825 19.9064 36.9457 20.6108L32.5357 30.6558H35.6594C35.6594 30.6558 36.2107 29.3083 36.3025 29.0021H40.1307C40.2532 29.3696 40.4982 30.6252 40.4982 30.6252H43.285L40.8044 19.7227V19.6921ZM37.16 26.7358C37.4357 26.0927 38.3544 23.6733 38.3544 23.6733C38.3544 23.7346 38.63 23.0302 38.7219 22.6627L38.9363 23.6427L39.6407 26.8277H37.16V26.7664V26.7358ZM32.75 27.0421C32.75 29.3083 30.6982 30.8089 27.5438 30.8089C26.1963 30.8089 24.91 30.5333 24.2057 30.2271L24.6344 27.7464L25.0019 27.8996C25.9819 28.3283 26.625 28.4814 27.7888 28.4814C28.6463 28.4814 29.565 28.1446 29.565 27.4096C29.565 26.9196 29.1975 26.6133 28.0032 26.0621C26.87 25.5108 25.3694 24.6533 25.3694 23.1221C25.3694 20.9783 27.4519 19.5083 30.4225 19.5083C31.5557 19.5083 32.505 19.7227 33.1175 19.9983L32.6888 22.3564L32.4744 22.1421C31.9232 21.9277 31.2494 21.7133 30.2082 21.7133C29.075 21.7746 28.5544 22.2646 28.5544 22.6933C28.5544 23.1833 29.1975 23.5508 30.2082 24.0408C31.9232 24.8371 32.7194 25.7558 32.7194 27.0421H32.75ZM6.53503 19.7839L6.59628 19.5696H11.2207C11.8638 19.5696 12.3538 19.7839 12.5069 20.4883L13.5175 25.3271C12.5069 22.7546 10.1182 20.6414 6.53503 19.7839Z" fill="black"/>
<path d="M20.01 19.6921L15.3244 30.5946H12.1394L9.4444 21.4684C11.3738 22.6934 12.9969 24.6534 13.5788 25.9702L13.9156 27.1034L16.825 19.6309H20.01V19.6921ZM21.2656 19.6309H24.2056L22.3375 30.5946H19.3975L21.2656 19.6309Z" fill="black"/>
</g>
<defs>
<clipPath id="clip0_5689_1971">
<rect width="49" height="49" fill="white" transform="translate(0.410034)"/>
</clipPath>
</defs>
</svg>
