<svg width="20" height="20" viewBox="0 0 20 20" fill="none" xmlns="http://www.w3.org/2000/svg">
<path d="M10 20C15.5228 20 20 15.5228 20 10C20 4.47715 15.5228 0 10 0C4.47715 0 0 4.47715 0 10C0 15.5228 4.47715 20 10 20Z" fill="#3D9635"/>
<path d="M2.94062 5.82173C2.90749 6.3386 2.86499 7.25298 3.25312 7.34548C3.72499 7.39423 3.46499 6.44485 3.63499 6.27235C3.66749 6.1886 3.72749 6.1886 3.73187 6.29423V7.10298C3.7253 7.18885 3.74849 7.27438 3.79754 7.34517C3.8466 7.41597 3.91853 7.46772 4.00124 7.49173C4.12624 7.48235 4.20749 7.48673 4.25562 7.62423C4.27645 8.08798 4.29583 8.55173 4.31374 9.01548C4.31374 9.01548 4.60187 9.11235 4.61562 8.2336C4.58683 7.88564 4.57786 7.53633 4.58874 7.18735C4.58874 7.08985 4.70124 7.0811 4.78124 7.13423C4.90624 7.23173 4.95999 7.35048 5.15124 7.30235C5.44374 7.20923 5.61749 7.05235 5.62249 6.7986C5.6153 6.55336 5.57104 6.31061 5.49124 6.0786C5.50374 6.03423 5.43312 5.92423 5.44812 5.87985C5.49999 5.97298 5.57874 5.9636 5.59624 5.87985C5.56785 5.70884 5.47916 5.55364 5.34624 5.44235C5.24249 5.34048 5.08937 5.36235 5.03374 5.57923C5.02791 5.85593 5.11214 6.12704 5.27374 6.35173C5.32358 6.4749 5.34392 6.60804 5.33312 6.74048C5.29427 6.76455 5.24754 6.77248 5.20292 6.76255C5.15831 6.75262 5.11934 6.72563 5.09437 6.68735C5.09437 6.68735 4.85937 6.4886 4.85937 6.44923C4.91626 6.24373 4.9095 6.02581 4.83999 5.82423C4.81407 5.7032 4.76202 5.5893 4.68749 5.49048C4.62999 5.41548 4.55124 5.41548 4.51374 5.49048C4.43106 5.75927 4.43764 6.04761 4.53249 6.31235C4.58437 6.4886 4.66812 6.59923 4.62999 6.59923C4.59749 6.7011 4.53124 6.67423 4.48374 6.55923C4.42664 6.31171 4.39957 6.05822 4.40312 5.80423C4.38124 5.60548 4.35749 5.17923 4.24187 5.0711C4.17124 4.96485 4.06499 5.01798 4.02749 5.11985C4.01849 5.31115 4.02246 5.50284 4.03937 5.6936C4.10854 5.99912 4.15678 6.30901 4.18374 6.6211C4.19374 7.0586 3.95999 6.8086 3.96999 6.59048C4.01992 6.31412 4.01716 6.03081 3.96187 5.75548C3.92374 5.6411 3.87874 5.61423 3.78437 5.63673C3.70937 5.62735 3.51999 5.86173 3.46687 6.25048C3.43907 6.3759 3.4182 6.50276 3.40437 6.63048C3.37687 6.82923 3.25999 6.97048 3.17812 6.59923C3.10562 6.32985 3.06312 5.66735 2.94437 5.82173" fill="white"/>
<path d="M4.22499 7.94182C3.80812 8.17619 3.40312 8.38807 2.99312 8.60869C3.06233 8.38758 3.1891 8.18886 3.36043 8.03291C3.53177 7.87695 3.7415 7.76937 3.96812 7.72119C4.21812 7.72994 4.15562 7.83182 4.22499 7.94182Z" fill="white"/>
<path d="M5.79561 5.01806C5.76842 5.02366 5.74198 5.03248 5.71686 5.04431C5.6531 5.06644 5.60034 5.11234 5.5696 5.17242C5.53886 5.23251 5.53251 5.30215 5.55186 5.36681C5.67061 6.17931 5.74624 6.79806 5.86436 7.60618C5.88499 7.70368 5.81249 7.82743 5.72186 7.81868C5.56624 7.69931 5.52749 7.45618 5.26249 7.46931C5.15059 7.49193 5.04844 7.54867 4.9701 7.63171C4.89176 7.71476 4.84106 7.82003 4.82499 7.93306C4.78931 8.10792 4.78931 8.28819 4.82499 8.46306C4.87213 8.53136 4.94154 8.58117 5.02133 8.60397C5.10113 8.62677 5.18637 8.62114 5.26249 8.58806C5.37874 8.53493 5.47561 8.40056 5.51686 8.43368C5.54249 8.48681 5.51311 8.91056 4.96811 9.23306C4.63124 9.40056 4.36499 9.44493 4.21811 9.13556C4.13061 8.94181 4.22499 8.20806 4.00686 8.37618C3.35811 10.2574 5.52499 10.5224 5.76811 8.45556C5.78374 8.39806 5.83061 8.34056 5.86624 8.35431C5.88249 8.36306 5.89374 8.38493 5.89749 8.42931C5.84749 10.2974 4.22186 10.4212 3.94624 9.83806C3.87943 9.63418 3.84649 9.42072 3.84874 9.20618C3.84849 9.13185 3.82536 9.0594 3.78249 8.99868C3.71624 8.94618 3.62811 9.09181 3.60811 9.34368C3.58823 9.4928 3.58174 9.6434 3.58874 9.79368C3.67499 11.2781 5.76874 10.6418 6.11061 9.41868C6.17802 9.03297 6.19692 8.64034 6.16686 8.24993H6.17374L6.17874 8.24556C6.39061 8.49556 6.67874 8.27618 6.74436 8.19243C6.75125 8.17994 6.76101 8.16927 6.77284 8.16129C6.78467 8.15332 6.79822 8.14826 6.81238 8.14656C6.82654 8.14485 6.84091 8.14653 6.85429 8.15146C6.86768 8.1564 6.8797 8.16444 6.88936 8.17493C6.9302 8.20763 6.97845 8.22978 7.02987 8.23942C7.08128 8.24905 7.13428 8.24589 7.18419 8.2302C7.23409 8.21451 7.27937 8.18678 7.31602 8.14946C7.35268 8.11214 7.37958 8.06636 7.39436 8.01618C7.43113 7.78354 7.45471 7.54899 7.46499 7.31368C7.38283 7.33158 7.30573 7.36768 7.23936 7.41931C7.23056 7.4294 7.22471 7.44173 7.22249 7.45493C7.21436 7.51743 7.20561 7.58743 7.19561 7.65368C7.19445 7.65959 7.19299 7.66543 7.19124 7.67118C7.18627 7.6791 7.1791 7.6854 7.17061 7.68931C7.1606 7.69609 7.14896 7.70008 7.13689 7.70088C7.12482 7.70168 7.11276 7.69924 7.10194 7.69384C7.09112 7.68843 7.08194 7.68024 7.07534 7.6701C7.06873 7.65997 7.06494 7.64826 7.06436 7.63618C7.01499 7.38618 6.80874 7.34431 6.68311 7.74181C6.59686 7.82181 6.44561 7.83493 6.42874 7.72431C6.45061 7.45493 6.35311 7.41931 6.16186 7.54306C6.09936 7.01306 6.03686 6.50993 5.97436 5.98056C6.05561 5.98056 6.12686 6.04681 6.20124 5.94493C6.13406 5.63104 6.01986 5.32909 5.86249 5.04931C5.85783 5.04299 5.85282 5.03694 5.84749 5.03118C5.84615 5.03108 5.84486 5.03062 5.84376 5.02985C5.84266 5.02908 5.84179 5.02803 5.84124 5.02681H5.83374C5.82999 5.02243 5.82374 5.02243 5.82311 5.01806C5.81311 5.01806 5.80436 5.01368 5.79561 5.01806ZM5.21311 7.91993C5.23855 7.91755 5.26402 7.92419 5.28505 7.93871C5.30608 7.95322 5.32132 7.97467 5.32811 7.99931C5.33575 8.02303 5.33759 8.04825 5.33345 8.07283C5.32932 8.09741 5.31934 8.12064 5.30436 8.14056C5.28749 8.17181 5.23249 8.15868 5.19124 8.15868C5.17042 8.16063 5.1495 8.15617 5.13129 8.14589C5.11308 8.13562 5.09845 8.12001 5.08936 8.10118C5.07436 8.05243 5.11561 8.00368 5.13561 7.96431C5.15561 7.92493 5.13936 7.95556 5.14249 7.95118C5.16284 7.93468 5.18721 7.92389 5.21311 7.91993Z" fill="white"/>
<path d="M7.25499 4.97363C7.20379 4.97863 7.15409 4.99372 7.10874 5.01801C7.05619 5.07321 7.0232 5.14413 7.01485 5.21989C7.00649 5.29565 7.02323 5.37206 7.06249 5.43738C7.14499 5.47738 7.22749 5.57488 7.17124 5.62488C6.93999 5.90363 6.33312 6.37488 6.30249 6.45988V6.46863H6.30749C6.45713 6.49421 6.60989 6.49568 6.75999 6.47301V6.46863C7.0333 6.20743 7.28418 5.92372 7.50999 5.62051C7.47937 5.58988 7.44749 5.56738 7.41687 5.53676C7.40957 5.5309 7.40368 5.52348 7.39963 5.51504C7.39558 5.50661 7.39348 5.49737 7.39348 5.48801C7.39348 5.47865 7.39558 5.46941 7.39963 5.46097C7.40368 5.45254 7.40957 5.44511 7.41687 5.43926C7.47577 5.38605 7.51145 5.31185 7.51625 5.23262C7.52104 5.15338 7.49456 5.07543 7.44249 5.01551C7.38517 4.98433 7.32005 4.97044 7.25499 4.97551M7.22624 5.21863C7.26437 5.21426 7.30874 5.25863 7.33124 5.31113C7.35374 5.36363 7.34312 5.42613 7.30562 5.43926C7.26812 5.45238 7.21624 5.40863 7.19124 5.35113C7.16624 5.29363 7.17999 5.23176 7.21937 5.22301C7.21937 5.22301 7.21937 5.21863 7.22624 5.21863ZM3.03624 9.27613C2.93213 9.45954 2.86726 9.66258 2.84574 9.87238C2.82423 10.0822 2.84653 10.2942 2.91124 10.4949C2.93959 10.536 2.97996 10.5675 3.02684 10.5848C3.07372 10.6021 3.12481 10.6046 3.17312 10.5918C3.31749 10.5211 3.38249 10.1899 3.34687 10.0711C3.29874 9.98238 3.26062 9.96926 3.21124 10.0443C3.11062 10.2743 3.06749 10.1149 3.05812 9.98176C3.04643 9.76346 3.05564 9.54455 3.08562 9.32801C3.11124 9.14738 3.08562 9.19988 3.03499 9.27551M12.9212 8.61363C12.6987 8.06988 12.3887 7.53551 12.2906 7.33238C12.1925 7.12926 11.4481 5.91488 11.3381 5.77363C11.0956 5.45113 11.7306 5.91051 11.2575 5.26551C11.0787 5.09301 11.07 5.08426 10.9156 4.94301C10.8431 4.88051 10.6562 4.77551 10.6262 4.95176C10.6092 5.07982 10.6145 5.20988 10.6419 5.33613C10.6889 5.45324 10.752 5.56325 10.8294 5.66301C11.6253 6.84648 12.3175 8.09655 12.8981 9.39926C13.0006 9.34676 12.9787 8.70613 12.9181 8.61363" fill="white"/>
<path d="M11.9412 10.4243C11.8956 10.4774 12.0481 10.7199 12.2475 10.7155C12.5781 10.6761 12.8725 10.4655 13.14 9.91176C13.2514 9.72265 13.3211 9.5119 13.3444 9.29364C13.3777 8.24707 13.303 7.19985 13.1212 6.16864C13.1097 6.09673 13.1124 6.02323 13.1294 5.95239C13.1506 5.92177 13.2237 5.95239 13.2619 5.88177C13.32 5.81552 13.1125 5.27677 12.9944 5.06927C12.9525 4.97614 12.9375 4.91489 12.8694 5.07802C12.7849 5.2635 12.7451 5.46622 12.7531 5.66989C12.9112 6.89801 12.9594 7.98239 13.0656 9.20739C13.0833 9.33358 13.0559 9.46197 12.9881 9.56989C12.7072 9.92882 12.3506 10.2214 11.9437 10.4268M15.7387 12.2193C15.4994 12.3743 15.4994 12.5549 15.6937 12.5593C15.8915 12.564 16.0871 12.5172 16.2613 12.4236C16.4355 12.3299 16.5824 12.1925 16.6875 12.0249C16.7826 11.8075 16.837 11.5744 16.8481 11.3374C16.893 10.208 16.8328 9.07687 16.6681 7.95864C16.647 7.8539 16.6359 7.74737 16.635 7.64052C16.6575 7.58301 16.7644 7.64926 16.8006 7.57801C16.8594 7.51551 16.5237 7.02614 16.4037 6.81864C16.3637 6.72551 16.3487 6.66364 16.2787 6.83176C16.1998 7.01692 16.176 7.22089 16.21 7.41926C16.3877 8.68464 16.4986 9.95848 16.5425 11.2355C16.5341 11.3421 16.5118 11.4472 16.4762 11.548C16.3853 11.7032 16.2764 11.8471 16.1519 11.9768C16.0419 12.0649 15.8119 12.153 15.7375 12.2193" fill="white"/>
<path d="M16.5956 9.21872C16.5919 8.90622 16.6037 8.63559 16.5919 8.40122C16.58 8.16684 16.4869 7.29247 16.4575 7.10747C16.4281 6.92247 16.3912 6.63497 16.3462 6.40934C16.32 6.27843 16.3062 6.14534 16.305 6.01184C16.3225 5.94934 16.3994 6.01622 16.4337 5.94122C16.3944 5.59712 16.2882 5.26401 16.1212 4.96059C16.0781 4.86809 15.9962 4.89809 15.8969 5.04934C15.8019 5.14622 15.8344 5.36684 15.8725 5.57934C16.1326 6.96106 16.259 8.36463 16.25 9.77059C16.2362 9.88122 16.5994 9.43059 16.5956 9.21872ZM14.84 7.48684C14.6894 7.48247 14.3756 7.15997 14.2844 6.97059C14.2569 6.87855 14.2631 6.77973 14.3019 6.69184C14.3575 6.65247 14.4431 6.60372 14.5062 6.65247C14.5062 6.65247 14.5725 6.75372 14.56 6.76747C14.6412 6.81122 14.6769 6.78497 14.685 6.74497C14.69 6.68247 14.6594 6.64372 14.6594 6.57309C14.6937 6.37434 14.8931 6.34747 14.9719 6.47122C15.0256 6.57814 15.0543 6.69592 15.0556 6.81559C15.0556 6.87309 14.9737 6.80684 14.9306 6.81997C14.8875 6.83309 14.8737 6.89122 14.8681 6.94497C14.8549 7.12576 14.8463 7.30686 14.8425 7.48809M12.0762 9.56747C12.1187 9.13872 12.0625 8.27309 12.0587 8.02184C12.045 7.42997 11.9569 6.28559 11.9175 6.09559C11.87 5.73372 12.0481 6.13559 12.0225 5.92372C11.944 5.58468 11.7928 5.26673 11.5794 4.99184C11.5131 4.88559 11.5169 4.86372 11.4106 5.01809C11.343 5.25554 11.3478 5.50776 11.4244 5.74247C11.5672 6.43577 11.6604 7.13839 11.7031 7.84497C11.7483 8.58914 11.7539 9.33519 11.72 10.08C11.8331 10.08 12.0137 9.87247 12.0762 9.56747Z" fill="white"/>
<path d="M17.1062 8.88317C16.8444 8.38317 16.4444 7.80067 16.3387 7.60192C16.2331 7.40317 15.3306 5.91942 15.2181 5.78942C14.8881 5.40504 15.3694 5.72692 15.1556 5.42254C15.0406 5.26816 14.9099 5.12615 14.7656 4.99879C14.6887 4.94567 14.6406 4.83504 14.6156 5.01629C14.602 5.17779 14.598 5.33995 14.6037 5.50192C14.6211 5.61169 14.6663 5.71519 14.735 5.80254C15.6261 7.02524 16.4176 8.31752 17.1019 9.66692C17.2019 9.61442 17.1675 8.97379 17.1056 8.88567M13.9106 13.6138C13.8641 13.6278 13.8225 13.6545 13.7906 13.691C13.7586 13.7275 13.7375 13.7723 13.7297 13.8202C13.722 13.8681 13.7279 13.9172 13.7467 13.962C13.7655 14.0067 13.7965 14.0452 13.8362 14.0732C11.3706 14.0732 7.58624 14.0288 6.77811 14.0288C6.32249 14.0288 4.88811 13.9663 4.86124 13.9663C5.00386 14.1838 5.20459 14.3571 5.44067 14.4663C5.67675 14.5756 5.93871 14.6165 6.19686 14.5844C7.29311 14.5844 12.365 14.5713 13.8069 14.5713C13.7704 14.6695 13.7596 14.7755 13.7756 14.8791C13.7915 14.9827 13.8337 15.0805 13.8981 15.1632L13.9037 15.1675C13.9045 15.1691 13.9058 15.1704 13.9074 15.1712C13.909 15.172 13.9108 15.1722 13.9125 15.1719H13.9169C14.0131 15.1988 14.055 15.1188 14.0887 15.0663C14.4572 15.0869 14.8267 15.0854 15.195 15.0619C15.2494 15.15 15.3044 15.2338 15.4062 15.2207C15.5862 15.1763 15.7275 15.1544 15.7337 14.7438C15.7337 14.7438 15.715 14.0457 15.3062 14.09C15.2094 14.1032 14.9387 14.1344 14.9387 14.1344C14.6262 14.0944 14.3931 14.09 14.0406 14.0719C14.0737 14.0275 14.13 13.8375 14.06 13.7713C14.0484 13.7615 14.0349 13.7542 14.0204 13.7497C14.006 13.7452 13.9907 13.7436 13.9756 13.745H13.9687C13.9687 13.745 13.9631 13.7407 13.9612 13.7363V13.7319C13.9451 13.6932 13.932 13.6533 13.9219 13.6125H13.9137M14.0812 14.6125C14.4387 14.63 14.7762 14.6169 15.1375 14.6344C15.1595 14.6642 15.1706 14.7007 15.1689 14.7376C15.1671 14.7746 15.1528 14.8099 15.1281 14.8375C15.1281 14.8419 15.1231 14.8419 15.1231 14.8419H15.1131C14.9962 14.8375 14.9294 14.8375 14.8125 14.8332C14.8125 14.8244 14.8087 14.82 14.8087 14.8113C14.78 14.7182 14.5812 14.7275 14.5325 14.8025V14.8244C14.5313 14.8287 14.5313 14.8333 14.5325 14.8375C14.3792 14.8473 14.2252 14.8414 14.0731 14.82C14.0287 14.7575 14.0337 14.6432 14.0881 14.6125M7.67311 5.39817C7.43374 6.16629 7.81186 7.01442 8.07311 6.93504C8.26061 7.01879 8.38124 6.61254 8.45999 6.17067C8.51374 6.04567 8.55311 6.03379 8.58061 6.09567C8.57249 6.68754 8.61749 6.82004 8.75249 6.99692C8.78869 7.03579 8.83238 7.06695 8.88093 7.08852C8.92948 7.11009 8.98188 7.12163 9.035 7.12244C9.08811 7.12326 9.14085 7.11334 9.19004 7.09327C9.23922 7.0732 9.28385 7.04341 9.32124 7.00567C9.34061 6.98817 9.55561 6.74504 9.55561 6.74504C9.56699 6.73027 9.58146 6.71816 9.598 6.70956C9.61454 6.70095 9.63276 6.69606 9.65139 6.69523C9.67002 6.6944 9.68861 6.69764 9.70585 6.70473C9.7231 6.71182 9.73858 6.72259 9.75124 6.73629C9.82061 6.80692 9.81374 6.93504 9.96499 7.01879C10.0449 7.05 10.1324 7.05619 10.2159 7.03655C10.2993 7.0169 10.3749 6.97235 10.4325 6.90879C10.5187 6.74504 10.5375 6.68754 10.5769 6.62567C10.6394 6.53317 10.7431 6.57317 10.7431 6.60379C10.7337 6.65692 10.675 6.70567 10.7131 6.79817C10.7881 6.86067 10.805 6.82004 10.8487 6.80692C11.0012 6.72317 11.1162 6.35192 11.1162 6.35192C11.1212 6.21067 11.0537 6.22379 11.0062 6.25504C10.9494 6.29442 10.9437 6.30817 10.8862 6.34754C10.8125 6.35629 10.6675 6.41379 10.5975 6.29004C10.5231 6.14004 10.5231 5.92817 10.4656 5.77817C10.4656 5.76942 10.37 5.54379 10.46 5.52817C10.5044 5.53692 10.6006 5.56754 10.6169 5.47504C10.6656 5.38692 10.515 5.13067 10.4131 5.00692C10.3949 4.98027 10.3707 4.95825 10.3425 4.94262C10.3142 4.92699 10.2827 4.91819 10.2505 4.91691C10.2182 4.91563 10.1861 4.92192 10.1567 4.93527C10.1273 4.94862 10.1015 4.96866 10.0812 4.99379C10.022 5.07263 9.99079 5.16896 9.99249 5.26754C9.97925 5.33155 9.97947 5.3976 9.99314 5.46151C10.0068 5.52543 10.0336 5.5858 10.0719 5.63879C10.2143 5.8636 10.2801 6.12848 10.2594 6.39379C10.2352 6.43708 10.1998 6.47305 10.1569 6.49791C10.114 6.52277 10.0652 6.5356 10.0156 6.53504C9.95311 6.51754 9.84686 6.48629 9.79061 6.02692C9.80389 5.66517 9.76302 5.30346 9.66936 4.95379C9.62124 4.81254 9.58749 4.67567 9.47061 4.91879C9.4197 4.99531 9.38703 5.08248 9.37511 5.17361C9.36319 5.26474 9.37234 5.35738 9.40186 5.44442C9.49173 5.70682 9.51744 5.98692 9.47686 6.26129C9.43705 6.34035 9.3902 6.41565 9.33686 6.48629C9.30308 6.53055 9.2534 6.55993 9.19835 6.56821C9.14329 6.57649 9.08717 6.56303 9.04186 6.53067C8.99129 6.50213 8.9485 6.46162 8.91722 6.4127C8.88595 6.36377 8.86716 6.30792 8.86249 6.25004C8.88328 5.94795 8.87344 5.64453 8.83311 5.34442C8.76186 5.17629 8.64124 5.23817 8.59124 5.28692C8.35663 5.58241 8.20382 5.93438 8.14811 6.30754C8.07936 6.55442 8.00624 6.48379 7.95561 6.38254C7.83061 6.25442 7.82311 5.22942 7.67311 5.39754" fill="white"/>
<path d="M8.48312 6.9924C8.48312 6.99678 8.47999 6.99678 8.47624 6.99678V7.00115C8.46062 7.0099 8.43999 7.04115 8.39874 7.07615C8.36378 7.12309 8.33885 7.17672 8.32551 7.23371C8.31218 7.2907 8.31073 7.34983 8.32124 7.4074C8.32437 7.4299 8.45249 7.83178 8.56374 8.11865C8.65694 8.42912 8.68836 8.75485 8.65624 9.0774C8.47753 9.4918 8.17804 9.84269 7.79687 10.0843C7.74126 10.1124 7.67981 10.1271 7.61749 10.1271C7.55518 10.1271 7.49373 10.1124 7.43812 10.0843V10.0799C7.40371 10.053 7.37674 10.0177 7.35979 9.97749C7.34283 9.93724 7.33645 9.89332 7.34124 9.8499C7.72535 9.6134 8.02719 9.2642 8.20562 8.8499C8.28989 8.61678 8.29799 8.36292 8.22874 8.1249C8.20711 8.00429 8.15673 7.89067 8.08187 7.79365C8.08187 7.79365 8.08187 7.79365 8.08187 7.78928C8.12999 7.76303 8.25437 7.86865 8.27499 7.8024C8.23884 7.61234 8.15253 7.43539 8.02499 7.2899C8.00843 7.2656 7.98659 7.24535 7.9611 7.23068C7.9356 7.21601 7.90712 7.20729 7.87778 7.20519C7.84845 7.20309 7.81901 7.20765 7.79169 7.21853C7.76436 7.22941 7.73985 7.24633 7.71999 7.26803C7.61687 7.33428 7.59499 7.56865 7.64312 7.77615C7.69937 7.92615 7.85124 7.95303 7.95937 8.26178V8.26615C7.97998 8.37354 7.97354 8.48438 7.94062 8.58865C7.75719 8.84391 7.53953 9.07272 7.29374 9.26865L7.28937 9.27303V9.27803H7.28249V9.27303C7.28489 9.23932 7.28489 9.20549 7.28249 9.17178C7.28249 9.08365 7.31437 8.87115 7.31187 8.83178V8.8274C7.12749 8.96428 7.06187 9.37928 7.02999 9.50303C6.56012 9.79587 6.12047 10.1346 5.71749 10.5143C5.55624 10.793 6.82437 10.1874 6.96749 10.1168C6.96749 10.1168 6.97124 10.1168 6.97312 10.1212C6.99993 10.2124 7.03792 10.2999 7.08624 10.3818C7.16026 10.4892 7.26581 10.5709 7.3883 10.6157C7.51079 10.6605 7.64417 10.6661 7.76999 10.6318C8.18636 10.4303 8.53147 10.1068 8.75937 9.70428C8.79687 9.64178 8.85749 9.59365 8.91187 9.64178C9.04291 9.89822 9.24417 10.1121 9.49216 10.2585C9.74015 10.4049 10.0247 10.4778 10.3125 10.4687C10.4706 10.2518 10.3962 10.1418 10.3312 10.1018C10.3106 10.0843 9.98937 9.94303 9.94062 9.80178C9.90999 9.67365 9.98437 9.55865 10.1387 9.4699C10.5786 9.42426 11.0122 9.33101 11.4319 9.19178C11.4469 9.01761 11.4951 8.84791 11.5737 8.69178C11.59 8.65636 11.6152 8.62578 11.6469 8.60303C11.6469 8.60303 11.6469 8.60303 11.6469 8.59865V8.59428C11.6474 8.59139 11.6474 8.58842 11.6469 8.58553L11.5737 8.53678L10.1687 8.52803C10.1547 8.52252 10.1415 8.51516 10.1294 8.50615V8.4799C10.1404 8.46495 10.156 8.45398 10.1737 8.44865C10.5112 8.3999 11.1062 8.2899 11.145 7.64053C11.1553 7.56738 11.1505 7.4929 11.1308 7.42169C11.1112 7.35048 11.0771 7.28405 11.0308 7.22653C10.9845 7.169 10.9268 7.12159 10.8614 7.08723C10.796 7.05288 10.7243 7.0323 10.6506 7.02678C10.5099 7.05695 10.3865 7.14051 10.3061 7.25987C10.2258 7.37924 10.1949 7.52511 10.22 7.66678C10.2081 7.75115 10.2475 7.92303 10.1687 7.94053C9.65124 7.99803 9.08749 8.36053 9.06687 8.62115H9.05999L9.05624 8.62553H9.04937L9.04312 8.62115C9.01668 8.60486 8.99591 8.58082 8.98361 8.55231C8.97131 8.5238 8.96808 8.49219 8.97437 8.46178C8.95069 7.99159 8.82959 7.53146 8.61874 7.11053C8.54749 7.02678 8.51499 6.99553 8.49374 6.99115H8.48499M10.5394 7.5699C10.5786 7.56587 10.6179 7.57681 10.6494 7.60053C10.6741 7.61305 10.6952 7.6319 10.7103 7.65517C10.7255 7.67844 10.7342 7.7053 10.7356 7.73303V7.7499L10.7269 7.75865C10.6994 7.78928 10.6394 7.7849 10.5794 7.7449C10.5563 7.73222 10.5364 7.71431 10.5214 7.69261C10.5065 7.67091 10.4968 7.64602 10.4931 7.6199V7.6149C10.4931 7.60615 10.4969 7.60178 10.4994 7.60178L10.5031 7.59303C10.5031 7.58865 10.5031 7.58865 10.51 7.58428C10.5143 7.57992 10.5195 7.57651 10.5252 7.57425C10.5309 7.57199 10.537 7.57093 10.5431 7.57115M9.23624 8.9049H9.24999C9.44365 8.94595 9.64035 8.97104 9.83812 8.9799C10.0012 8.99303 10.0819 9.13428 9.92937 9.19615C9.77687 9.25803 9.63374 9.29803 9.63374 9.54553C9.6544 9.61464 9.6544 9.68829 9.63374 9.7574C9.63374 9.76178 9.62999 9.76615 9.62749 9.76615V9.7749H9.62312L9.61624 9.77928C9.61586 9.7805 9.61512 9.78157 9.61411 9.78235C9.61311 9.78313 9.61189 9.78359 9.61062 9.78365C9.57312 9.78803 9.52124 9.74428 9.48124 9.72615C9.37366 9.65216 9.28318 9.55597 9.21591 9.44406C9.14863 9.33215 9.10612 9.20713 9.09124 9.0774C9.08936 9.05645 9.09167 9.03532 9.09802 9.01526C9.10438 8.9952 9.11466 8.9766 9.12827 8.96055C9.14188 8.9445 9.15854 8.93131 9.17729 8.92176C9.19604 8.91221 9.21651 8.90648 9.23749 8.9049M4.71249 5.40678C4.87562 5.49053 5.17874 5.45553 5.16624 5.16365C5.16498 5.11798 5.16269 5.07235 5.15937 5.02678C5.12749 4.93865 5.03437 4.95615 5.01562 5.04928C5.00874 5.07553 5.02562 5.12428 5.00312 5.14178C4.98062 5.15928 4.93749 5.14615 4.94062 5.06678C4.93903 5.04116 4.9299 5.01659 4.91437 4.99615C4.90951 4.99073 4.90333 4.98667 4.89642 4.98437C4.88952 4.98207 4.88213 4.98161 4.87499 4.98303C4.85312 4.9874 4.85312 4.99178 4.84312 5.01365C4.83536 5.03491 4.83113 5.05729 4.83062 5.0799C4.82687 5.11053 4.81562 5.1199 4.79687 5.12428C4.77812 5.12865 4.78249 5.12865 4.76374 5.11553C4.75499 5.10178 4.73999 5.0974 4.73999 5.07553C4.73959 5.05181 4.73708 5.02818 4.73249 5.0049C4.72236 4.99176 4.70801 4.9825 4.69187 4.97865C4.60249 4.97865 4.59687 5.09303 4.60249 5.1374C4.59499 5.14615 4.59249 5.34928 4.71249 5.40678Z" fill="white"/>
<path d="M9.46062 7.66803C9.62249 7.7524 10.0075 7.70365 9.91499 7.41803C9.91397 7.37226 9.91063 7.32658 9.90499 7.28115C9.87312 7.19303 9.78374 7.2149 9.76187 7.30365C9.75687 7.33428 9.77437 7.38303 9.75124 7.40053C9.72812 7.41803 9.68499 7.40053 9.68874 7.32115C9.6871 7.29687 9.67792 7.27371 9.66249 7.2549C9.65779 7.25 9.652 7.24626 9.6456 7.24399C9.6392 7.24171 9.63236 7.24095 9.62562 7.24178C9.60437 7.24615 9.60437 7.25053 9.59187 7.2724C9.58503 7.29387 9.58103 7.31614 9.57999 7.33865C9.57999 7.3699 9.56687 7.37865 9.54749 7.38303C9.52812 7.3874 9.53374 7.3874 9.51499 7.37428C9.49624 7.36115 9.49124 7.35678 9.49124 7.33428C9.49206 7.31028 9.48846 7.28634 9.48062 7.26365C9.47144 7.25008 9.4573 7.24065 9.44124 7.2374C9.35374 7.2374 9.34874 7.35178 9.35187 7.39615C9.34687 7.40053 9.34312 7.60365 9.46312 7.66553M12.2294 6.73178C12.3906 6.81553 12.695 6.77615 12.6825 6.48178C12.6825 6.4599 12.6775 6.37178 12.6756 6.3449C12.6412 6.26115 12.5506 6.27865 12.5319 6.37178C12.5244 6.39803 12.5412 6.44678 12.5175 6.4599C12.5056 6.4774 12.455 6.46865 12.455 6.3849C12.4518 6.35964 12.4429 6.33546 12.4287 6.31428C12.4174 6.30986 12.4052 6.30835 12.3931 6.3099C12.3719 6.3099 12.3719 6.31428 12.3587 6.33615C12.3515 6.35904 12.3473 6.38279 12.3462 6.40678C12.3462 6.43365 12.3344 6.4424 12.3137 6.44678C12.2931 6.45115 12.2969 6.45115 12.2825 6.43803C12.2756 6.43382 12.2698 6.42798 12.2656 6.421C12.2615 6.41402 12.2591 6.40613 12.2587 6.39803C12.258 6.37271 12.2544 6.34756 12.2481 6.32303C12.2364 6.31438 12.223 6.30841 12.2087 6.30553C12.1206 6.30553 12.1131 6.4199 12.1194 6.4599C12.1131 6.46865 12.1094 6.67178 12.23 6.72928M13.6625 9.0774C13.5656 9.2379 13.5067 9.41845 13.4904 9.60521C13.474 9.79197 13.5006 9.98 13.5681 10.1549C13.6285 10.3399 13.7519 10.4979 13.9169 10.6012C13.9412 10.6276 13.9715 10.6479 14.0052 10.6603C14.0389 10.6728 14.0751 10.677 14.1108 10.6727C14.1464 10.6683 14.1806 10.6555 14.2103 10.6354C14.2401 10.6152 14.2646 10.5883 14.2819 10.5568C14.4469 10.3624 14.4512 9.8724 14.5275 9.7749C14.5837 9.59365 14.7194 9.6249 14.7856 9.70428C14.8457 9.79821 14.9268 9.87694 15.0225 9.93428C15.0539 9.97148 15.0924 10.002 15.1357 10.0242C15.179 10.0464 15.2263 10.0597 15.2749 10.0633C15.3234 10.067 15.3722 10.061 15.4183 10.0456C15.4645 10.0302 15.5071 10.0057 15.5437 9.97365C15.6811 9.88661 15.7804 9.75087 15.8219 9.59365C15.8824 8.85032 15.8892 8.1036 15.8425 7.35928C15.8344 7.30615 15.6825 6.44053 15.6825 6.43115C15.6825 6.42178 15.6606 5.9899 15.645 5.88803C15.6412 5.84428 15.6325 5.83053 15.6719 5.83553C15.7131 5.87928 15.7169 5.88365 15.7431 5.8924C15.7844 5.90178 15.8219 5.82178 15.7975 5.74678C15.6725 5.48178 15.5394 5.2124 15.4106 4.95178C15.3812 4.9124 15.34 4.87678 15.2894 4.95615C15.2588 4.9878 15.2347 5.02519 15.2186 5.06616C15.2026 5.10714 15.1947 5.15089 15.1956 5.1949C15.2075 5.3824 15.2369 5.57928 15.2475 5.76928C15.2994 6.09115 15.3506 6.41803 15.4025 6.7449C15.4506 7.43865 15.465 8.07428 15.5125 8.76803C15.5236 9.01876 15.4659 9.26775 15.3456 9.48803C15.3456 9.48803 15.2325 9.5674 15.1544 9.48365C15.046 9.35187 14.951 9.20973 14.8706 9.05928C14.7544 8.94053 14.6769 8.97115 14.5944 9.05928C14.3904 9.37903 14.2281 9.72347 14.1112 10.0843C14.07 10.1549 13.9581 10.2168 13.8344 10.0799C13.6709 9.77376 13.6106 9.42305 13.6625 9.0799M12.3025 5.02678C12.3816 5.0945 12.4425 5.18091 12.4797 5.27816C12.517 5.37541 12.5293 5.48042 12.5156 5.58365C12.4862 5.7824 12.4106 6.00303 12.3544 5.9724C12.2981 5.94178 12.3944 5.77365 12.3387 5.5924C12.3044 5.47303 12.1081 5.26115 12.1287 5.1949C12.1203 5.1709 12.119 5.14498 12.1248 5.12023C12.1307 5.09548 12.1435 5.07293 12.1618 5.05524C12.1801 5.03755 12.2031 5.02547 12.228 5.02043C12.2529 5.01538 12.2788 5.01759 12.3025 5.02678Z" fill="white"/>
<path d="M14.13 9.27619C14.1433 8.98418 14.133 8.69157 14.0994 8.40119C14.0906 8.17182 13.8669 6.27619 13.8194 6.09994C13.7644 5.76932 14.0387 6.05619 14.0069 5.86182C13.9131 5.61869 13.6775 5.26119 13.6044 5.04932C13.5575 4.95619 13.5769 4.87682 13.4794 5.02682C13.3938 5.29483 13.3634 5.57737 13.39 5.85744C13.6702 7.17025 13.8193 8.50765 13.835 9.84994C13.9469 9.84994 14.0762 9.56307 14.1325 9.27619M15.9262 7.29932C16.0619 7.37869 16.1381 7.78932 16.1237 7.90869C16.0981 8.12494 16.0281 8.35932 15.9775 8.32807C15.9269 8.29682 15.9881 8.00619 15.9619 7.91744C15.93 7.78932 15.7519 7.55557 15.77 7.48494C15.7337 7.33869 15.8487 7.27744 15.9262 7.29744M6.77874 8.52494C6.90374 8.57807 6.97874 8.88307 6.96624 8.97119C6.94061 9.12994 6.87374 9.29807 6.82624 9.28369C6.77874 9.26932 6.83749 9.04494 6.81062 8.97869C6.80124 8.81557 6.62312 8.72869 6.62937 8.66057C6.59562 8.53244 6.70062 8.51057 6.78062 8.52807M3.39624 4.92557C3.58374 4.98807 3.59374 5.29619 3.58374 5.38932C3.55812 5.55244 3.49124 5.72932 3.44249 5.70744C3.39374 5.68557 3.44249 5.46432 3.41624 5.39494C3.38937 5.29307 3.22874 5.12119 3.24999 5.06807C3.21374 4.95744 3.32062 4.90432 3.39812 4.92682M7.08312 6.38307C7.00972 6.44079 6.95867 6.52223 6.93872 6.61344C6.91876 6.70466 6.93115 6.79998 6.97374 6.88307C6.99839 6.91985 7.03438 6.94758 7.07624 6.96202C7.1181 6.97646 7.16353 6.97683 7.20562 6.96307C7.34624 6.98494 7.42937 6.66682 7.42937 6.66682C7.42937 6.66682 7.43374 6.57869 7.26874 6.74619C7.19749 6.76432 7.18874 6.73307 7.17061 6.68869C7.15397 6.60606 7.16135 6.52039 7.19186 6.44182C7.21749 6.36182 7.16374 6.32682 7.08312 6.38432M8.15624 4.80619C8.0937 4.85701 8.04212 4.92 8.00463 4.99133C7.96714 5.06266 7.94451 5.14086 7.93812 5.22119C7.93249 5.32744 7.91437 5.32744 7.97749 5.39807C8.02436 5.47307 8.07062 5.46432 8.16187 5.40682C8.18532 5.39037 8.20526 5.36941 8.2205 5.34515C8.23574 5.3209 8.24598 5.29384 8.25062 5.26557C8.27312 5.14057 8.13562 5.32307 8.11687 5.18619C8.08749 5.05807 8.17499 5.00932 8.25937 4.88119C8.25937 4.79744 8.25937 4.73994 8.15624 4.80619ZM9.02312 4.97869C8.98872 5.13706 8.96782 5.29805 8.96062 5.45994C8.93499 5.57932 9.07374 5.63182 9.13437 5.47744C9.19683 5.30912 9.23002 5.13134 9.23249 4.95182C9.20499 4.77057 9.09499 4.77994 9.02312 4.97869ZM14.4794 8.10119C14.4994 8.08307 15.2481 7.48244 15.2481 7.48244C15.325 7.45182 15.3106 7.79494 15.2737 7.78744C15.0467 8.0397 14.778 8.2511 14.4794 8.41244C14.4431 8.43932 14.4056 8.17869 14.4794 8.10369M15.1637 8.09682C15.2975 8.17182 15.3512 8.60432 15.335 8.72182C15.34 8.95182 15.21 9.13682 15.1562 9.11057C15.1025 9.08432 15.1619 8.82369 15.1362 8.73057C15.0783 8.58988 15.0364 8.44313 15.0112 8.29307C14.9737 8.14682 15.0825 8.06744 15.1631 8.09432M10.7019 9.96932C10.7635 9.89107 10.8351 9.8213 10.915 9.76182C10.9391 9.74973 10.9665 9.74617 10.9929 9.75174C11.0192 9.7573 11.0429 9.77165 11.06 9.79244C11.0731 9.87244 11.0137 9.95182 11.0325 10.0618C11.0475 10.1062 11.06 10.1593 11.1325 10.1374C11.1798 10.0956 11.2351 10.0639 11.295 10.0441C11.355 10.0243 11.4184 10.017 11.4812 10.0224C11.575 10.0224 11.5756 10.1987 11.52 10.1987C11.355 10.2441 11.1954 10.3069 11.0437 10.3862C11.0225 10.4015 10.996 10.4078 10.9702 10.4037C10.9443 10.3996 10.9211 10.3854 10.9056 10.3643C10.8911 10.3416 10.8823 10.3156 10.8801 10.2887C10.8778 10.2619 10.882 10.2348 10.8925 10.2099C10.8987 10.1212 10.8669 10.0731 10.8 10.0774C10.75 10.1124 10.7069 10.1299 10.6819 10.0687C10.6731 10.0199 10.6694 9.99369 10.7019 9.96682M15.9537 10.2037C15.975 10.2255 15.9869 10.2548 15.9869 10.2853C15.9869 10.3157 15.975 10.345 15.9537 10.3668C15.9 10.4243 15.8644 10.4506 15.8106 10.5081C15.7869 10.5568 15.7712 10.6274 15.8462 10.6493C15.9856 10.6937 16.3106 10.4618 16.3106 10.4506C16.328 10.4348 16.3402 10.4141 16.3457 10.3912C16.3512 10.3684 16.3496 10.3444 16.3412 10.3224C16.3106 10.2831 16.2425 10.3049 16.1969 10.3049C16.1731 10.3049 16.1012 10.2874 16.1344 10.2212C16.1584 10.1818 16.1781 10.1399 16.1931 10.0962C16.2137 10.0387 16.1975 10.0037 16.1156 9.97119C16.0494 9.96024 15.9818 9.96024 15.9156 9.97119C15.8675 9.98432 15.8531 10.0112 15.8419 10.0731C15.845 10.1699 15.8987 10.1656 15.955 10.2056" fill="white"/>
</svg>
