<svg width="38" height="26" viewBox="0 0 38 26" fill="none" xmlns="http://www.w3.org/2000/svg">
<g clip-path="url(#clip0_4547_19421)">
<path d="M6.90808 25.8708V24.15C6.90808 23.4902 6.45179 23.06 5.66967 23.06C5.27868 23.06 4.85504 23.1748 4.56173 23.5476C4.33373 23.2321 4.00791 23.06 3.51911 23.06C3.19314 23.06 2.86746 23.146 2.60666 23.4615V23.1174H1.92236V25.8708H2.60666V24.3506C2.60666 23.8632 2.89997 23.6336 3.35627 23.6336C3.81227 23.6336 4.04057 23.8918 4.04057 24.3506V25.8708H4.72486V24.3506C4.72486 23.8632 5.05054 23.6336 5.47418 23.6336C5.93047 23.6336 6.15847 23.8918 6.15847 24.3506V25.8708H6.90808ZM17.0421 23.1174H15.9343V22.2857H15.25V23.1174H14.6308V23.6622H15.2498V24.9243C15.2498 25.5554 15.5431 25.9281 16.3253 25.9281C16.6186 25.9281 16.9442 25.8422 17.1725 25.7275L16.9769 25.2111C16.7814 25.3258 16.5534 25.3546 16.3904 25.3546C16.0646 25.3546 15.9343 25.1825 15.9343 24.8956V23.6622H17.0421V23.1174ZM22.8424 23.0599C22.4514 23.0599 22.1908 23.2321 22.0278 23.4615V23.1174H21.3435V25.8708H22.0278V24.322C22.0278 23.8632 22.2558 23.605 22.6794 23.605C22.8097 23.605 22.9727 23.6337 23.1031 23.6624L23.2986 23.0888C23.1682 23.06 22.9727 23.06 22.8424 23.06M14.0769 23.347C13.7509 23.1461 13.2948 23.0602 12.8059 23.0602C12.024 23.0602 11.5027 23.4043 11.5027 23.9493C11.5027 24.4083 11.8937 24.6663 12.5779 24.7524L12.9038 24.7811C13.2622 24.8384 13.4577 24.9245 13.4577 25.0679C13.4577 25.2686 13.1971 25.4121 12.7408 25.4121C12.2846 25.4121 11.9262 25.2686 11.698 25.1253L11.3722 25.5841C11.7307 25.8136 12.2195 25.9283 12.7081 25.9283C13.6206 25.9283 14.142 25.5555 14.142 25.0392C14.142 24.5516 13.7184 24.2934 13.0666 24.2074L12.7408 24.1787C12.4475 24.15 12.2195 24.0927 12.2195 23.9207C12.2195 23.7198 12.4475 23.6051 12.8059 23.6051C13.1971 23.6051 13.5881 23.7485 13.7836 23.8346L14.0769 23.347ZM32.2597 23.0602C31.8686 23.0602 31.6079 23.2322 31.445 23.4617V23.1175H30.7607V25.8709H31.445V24.3222C31.445 23.8633 31.6731 23.6051 32.0966 23.6051C32.2271 23.6051 32.3901 23.6339 32.5204 23.6625L32.7159 23.0889C32.5855 23.0602 32.3901 23.0602 32.2597 23.0602ZM23.5267 24.4942C23.5267 25.326 24.1783 25.9283 25.1886 25.9283C25.6448 25.9283 25.9706 25.8423 26.2964 25.6129L25.9706 25.1253C25.7099 25.2973 25.4493 25.3833 25.156 25.3833C24.602 25.3833 24.211 25.0392 24.211 24.4942C24.211 23.978 24.602 23.6337 25.156 23.6051C25.4493 23.6051 25.7099 23.6911 25.9706 23.8633L26.2964 23.3757C25.9706 23.1461 25.6448 23.0602 25.1886 23.0602C24.1783 23.0602 23.5267 23.6625 23.5267 24.4942ZM29.8484 24.4942V23.1175H29.1641V23.4617C28.9359 23.2036 28.6101 23.0602 28.1865 23.0602C27.3067 23.0602 26.6224 23.6625 26.6224 24.4942C26.6224 25.326 27.3067 25.9283 28.1865 25.9283C28.6426 25.9283 28.9686 25.7849 29.1641 25.5268V25.8709H29.8484V24.4942ZM27.3392 24.4942C27.3392 24.0066 27.6976 23.6051 28.2841 23.6051C28.8381 23.6051 29.2292 23.978 29.2292 24.4942C29.2292 24.9818 28.8381 25.3833 28.2841 25.3833C27.6976 25.3546 27.3392 24.9818 27.3392 24.4942ZM19.1603 23.0602C18.2478 23.0602 17.596 23.6337 17.596 24.4942C17.596 25.3547 18.2477 25.9283 19.1928 25.9283C19.6489 25.9283 20.1052 25.8136 20.4637 25.5555L20.1377 25.1253C19.8771 25.2973 19.5512 25.4121 19.2254 25.4121C18.8018 25.4121 18.3781 25.24 18.2803 24.7523H20.594V24.523C20.6267 23.6337 20.0402 23.0602 19.1603 23.0602ZM19.1601 23.5764C19.5836 23.5764 19.8771 23.8059 19.9421 24.2362H18.3128C18.378 23.8633 18.6713 23.5764 19.1601 23.5764ZM36.1372 24.4942V22.0276H35.4529V23.4617C35.2248 23.2036 34.8989 23.0602 34.4753 23.0602C33.5955 23.0602 32.9112 23.6625 32.9112 24.4942C32.9112 25.326 33.5955 25.9283 34.4753 25.9283C34.9316 25.9283 35.2574 25.7849 35.4529 25.5268V25.8709H36.1372V24.4942ZM33.6282 24.4942C33.6282 24.0066 33.9865 23.6051 34.5731 23.6051C35.1271 23.6051 35.5181 23.978 35.5181 24.4942C35.5181 24.9818 35.1271 25.3833 34.5731 25.3833C33.9865 25.3546 33.6282 24.9818 33.6282 24.4942ZM10.7529 24.4942V23.1175H10.0686V23.4617C9.84047 23.2036 9.51464 23.0602 9.091 23.0602C8.21121 23.0602 7.52692 23.6625 7.52692 24.4942C7.52692 25.326 8.21121 25.9283 9.091 25.9283C9.5473 25.9283 9.87312 25.7849 10.0686 25.5268V25.8709H10.7529V24.4942ZM8.21122 24.4942C8.21122 24.0066 8.56969 23.6051 9.15617 23.6051C9.71014 23.6051 10.1013 23.978 10.1013 24.4942C10.1013 24.9818 9.71014 25.3833 9.15617 25.3833C8.56969 25.3546 8.21122 24.9818 8.21122 24.4942Z" fill="#191919"/>
<path d="M13.8491 2.20844H24.1136V18.4422H13.8491V2.20844Z" fill="#FF5F00"/>
<path d="M14.5007 10.3254C14.5007 7.02706 16.2603 4.10147 18.9648 2.20843C16.9772 0.831739 14.4682 0 11.731 0C5.24623 0 0 4.61768 0 10.3254C0 16.033 5.24623 20.6508 11.7309 20.6508C14.4681 20.6508 16.9771 19.8191 18.9648 18.4422C16.2603 16.5779 14.5007 13.6237 14.5007 10.3254Z" fill="#EB001B"/>
<path d="M37.9624 10.3254C37.9624 16.033 32.7162 20.6508 26.2315 20.6508C23.4943 20.6508 20.9853 19.8191 18.9976 18.4422C21.7347 16.5493 23.4618 13.6237 23.4618 10.3254C23.4618 7.02706 21.7021 4.10147 18.9976 2.20843C20.9851 0.831739 23.4943 0 26.2315 0C32.7162 0 37.9624 4.64642 37.9624 10.3254Z" fill="#F79E1B"/>
</g>
<defs>
<clipPath id="clip0_4547_19421">
<rect width="38" height="26" fill="white"/>
</clipPath>
</defs>
</svg>
