<svg width="18" height="18" viewBox="0 0 18 18" fill="none" xmlns="http://www.w3.org/2000/svg">
<path d="M12.75 15.5625H5.25C1.9425 15.5625 0.9375 14.5575 0.9375 11.25V10.875C0.9375 10.5675 1.1925 10.3125 1.5 10.3125C2.22 10.3125 2.8125 9.72 2.8125 9C2.8125 8.28 2.22 7.6875 1.5 7.6875C1.1925 7.6875 0.9375 7.4325 0.9375 7.125V6.75C0.9375 3.4425 1.9425 2.4375 5.25 2.4375H12.75C16.0575 2.4375 17.0625 3.4425 17.0625 6.75V7.5C17.0625 7.8075 16.8075 8.0625 16.5 8.0625C15.78 8.0625 15.1875 8.655 15.1875 9.375C15.1875 10.095 15.78 10.6875 16.5 10.6875C16.8075 10.6875 17.0625 10.9425 17.0625 11.25C17.0625 14.5575 16.0575 15.5625 12.75 15.5625ZM2.0625 11.37C2.0775 13.95 2.61 14.4375 5.25 14.4375H12.75C15.255 14.4375 15.8625 13.995 15.93 11.745C14.8575 11.49 14.0625 10.5225 14.0625 9.375C14.0625 8.2275 14.865 7.26 15.9375 7.005V6.75C15.9375 4.0725 15.4275 3.5625 12.75 3.5625H5.25C2.61 3.5625 2.0775 4.05 2.0625 6.63C3.135 6.885 3.9375 7.8525 3.9375 9C3.9375 10.1475 3.135 11.115 2.0625 11.37Z" fill="#666666"/>
<path d="M11.2497 11.91C10.8297 11.91 10.4922 11.5725 10.4922 11.16C10.4922 10.7475 10.8297 10.41 11.2422 10.41C11.6547 10.41 11.9922 10.7475 11.9922 11.16C11.9922 11.5725 11.6697 11.91 11.2497 11.91Z" fill="#666666"/>
<path d="M6.74969 8.16C6.32969 8.16 5.99219 7.8225 5.99219 7.41C5.99219 6.9975 6.32969 6.66 6.74219 6.66C7.15469 6.66 7.49219 6.9975 7.49219 7.41C7.49219 7.8225 7.16969 8.16 6.74969 8.16Z" fill="#666666"/>
<path d="M6.47273 12.3225C6.33023 12.3225 6.18773 12.27 6.07523 12.1575C5.85773 11.94 5.85773 11.58 6.07523 11.3625L11.1227 6.315C11.3402 6.0975 11.7002 6.0975 11.9177 6.315C12.1352 6.5325 12.1352 6.8925 11.9177 7.11L6.87023 12.1575C6.76523 12.27 6.61523 12.3225 6.47273 12.3225Z" fill="#666666"/>
</svg>
