<svg width="18" height="18" viewBox="0 0 18 18" fill="none" xmlns="http://www.w3.org/2000/svg">
<path d="M12.375 6.4725C12.0675 6.4725 11.8125 6.2175 11.8125 5.91V4.875C11.8125 4.0875 11.475 3.3225 10.89 2.79C10.2975 2.25 9.5325 2.0025 8.7225 2.0775C7.3725 2.205 6.1875 3.585 6.1875 5.025V5.7525C6.1875 6.06 5.9325 6.315 5.625 6.315C5.3175 6.315 5.0625 6.06 5.0625 5.7525V5.0175C5.0625 3 6.69 1.14 8.6175 0.952503C9.7425 0.847503 10.8225 1.2 11.6475 1.9575C12.465 2.7 12.9375 3.765 12.9375 4.875V5.91C12.9375 6.2175 12.6825 6.4725 12.375 6.4725Z" fill="#666666"/>
<path d="M11.2508 17.0625H6.75084C3.28584 17.0625 2.64084 15.45 2.47584 13.8825L1.91334 9.39C1.83084 8.58 1.80084 7.4175 2.58834 6.5475C3.26334 5.7975 4.38084 5.4375 6.00084 5.4375H12.0008C13.6283 5.4375 14.7458 5.805 15.4133 6.5475C16.1933 7.4175 16.1708 8.58 16.0883 9.375L15.5258 13.8825C15.3608 15.45 14.7158 17.0625 11.2508 17.0625ZM6.00084 6.5625C4.73334 6.5625 3.86334 6.81 3.42084 7.305C3.05334 7.71 2.93334 8.3325 3.03084 9.2625L3.59334 13.755C3.72084 14.955 4.05084 15.945 6.75084 15.945H11.2508C13.9508 15.945 14.2808 14.9625 14.4083 13.77L14.9708 9.2625C15.0683 8.3475 14.9483 7.725 14.5808 7.3125C14.1383 6.81 13.2683 6.5625 12.0008 6.5625H6.00084Z" fill="#666666"/>
<path d="M11.5641 9.8625C11.1441 9.8625 10.8066 9.525 10.8066 9.1125C10.8066 8.7 11.1441 8.3625 11.5566 8.3625C11.9691 8.3625 12.3066 8.7 12.3066 9.1125C12.3066 9.525 11.9766 9.8625 11.5641 9.8625Z" fill="#666666"/>
<path d="M6.31414 9.8625C5.89414 9.8625 5.55664 9.525 5.55664 9.1125C5.55664 8.7 5.89414 8.3625 6.30664 8.3625C6.71914 8.3625 7.05664 8.7 7.05664 9.1125C7.05664 9.525 6.72664 9.8625 6.31414 9.8625Z" fill="#666666"/>
</svg>
