<svg width="18" height="18" viewBox="0 0 18 18" fill="none" xmlns="http://www.w3.org/2000/svg">
<path d="M9 7.89C8.6925 7.89 8.4375 7.635 8.4375 7.3275V4.83C8.4375 4.5225 8.6925 4.2675 9 4.2675C9.3075 4.2675 9.5625 4.5225 9.5625 4.83V7.3275C9.5625 7.6425 9.3075 7.89 9 7.89Z" fill="#666666"/>
<path d="M9.01563 15.2625C7.08063 15.2625 5.15313 14.955 3.31563 14.34C2.63313 14.115 2.11563 13.6275 1.89063 13.0125C1.66563 12.3975 1.74063 11.6925 2.10813 11.0775L3.06063 9.4875C3.27063 9.135 3.45813 8.475 3.45813 8.0625V6.4875C3.45813 3.42 5.94813 0.93 9.01563 0.93C12.0831 0.93 14.5731 3.42 14.5731 6.4875V8.0625C14.5731 8.4675 14.7606 9.135 14.9706 9.4875L15.9231 11.0775C16.2756 11.6625 16.3356 12.36 16.1031 12.9975C15.8706 13.635 15.3606 14.1225 14.7156 14.34C12.8781 14.9625 10.9506 15.2625 9.01563 15.2625ZM9.01563 2.0625C6.57063 2.0625 4.58313 4.05 4.58313 6.495V8.07C4.58313 8.6775 4.34313 9.555 4.02813 10.0725L3.07563 11.67C2.88063 11.9925 2.83563 12.3375 2.94813 12.6375C3.06063 12.9375 3.31563 13.1625 3.67563 13.2825C7.12563 14.43 10.9206 14.43 14.3706 13.2825C14.6931 13.1775 14.9406 12.9375 15.0531 12.6225C15.1731 12.3075 15.1356 11.9625 14.9631 11.67L14.0106 10.08C13.6956 9.5625 13.4556 8.685 13.4556 8.0775V6.5025C13.4481 4.05 11.4606 2.0625 9.01563 2.0625Z" fill="#666666"/>
<path d="M8.99945 17.175C8.19695 17.175 7.40945 16.845 6.83945 16.275C6.26945 15.705 5.93945 14.9175 5.93945 14.115H7.06445C7.06445 14.625 7.27445 15.12 7.63445 15.48C7.99445 15.84 8.48945 16.05 8.99945 16.05C10.0645 16.05 10.9345 15.18 10.9345 14.115H12.0595C12.0595 15.8025 10.687 17.175 8.99945 17.175Z" fill="#666666"/>
</svg>
